<?xml version="1.0" encoding="utf-8"?>
<!-- Generator: Adobe Illustrator 18.1.1, SVG Export Plug-In . SVG Version: 6.00 Build 0)  -->
<svg version="1.1" id="Layer_1" xmlns="http://www.w3.org/2000/svg" xmlns:xlink="http://www.w3.org/1999/xlink" x="0px" y="0px"
	 width="360px" height="250px" viewBox="0 0 360 250" enable-background="new 0 0 360 250" xml:space="preserve">
<g>
	<g>
		<g>
			<path fill="#505A78" d="M-4979.2-2044.6c6.2,1.1,21.6,1.7,39.1,2c1,0,2.1,0,3.2,0c0.5,0,1,0,1.5,0l0.7,0l0.2,0
				c0.1,0,0.1,0,0.1-0.1l0.1-0.4c0.2-0.5,0.4-0.9,0.6-1.4l0.3-0.7l0.2-0.3c0.4-0.9,1-1.7,1.6-2.5c0.7-0.7,1.4-1.4,2.3-1.9
				c1.8-1.1,4.1-1.6,6.7-1.8c1.3-0.1,2.6-0.1,4,0l1,0.1l1,0.1c0.4,0,0.7,0,1-0.1c1.3-0.3,2.4-1.4,2.6-2.8c0.2-0.9,0.2-1,0.3-1.4
				c0.1-0.3,0.1-0.7,0.2-1c0.2-0.7,0.4-1.4,0.6-2.1c0.4-1.4,1-2.7,1.6-4c1.3-2.6,2.9-5,5-6.9c2.1-1.9,4.6-3.3,7.2-4.2l1-0.3
				c0.3-0.1,0.7-0.1,1-0.2c0.7-0.1,1.4-0.3,2.1-0.4c0.7,0,1.4-0.1,2.1-0.1c0.3,0,0.7,0,1-0.1l1,0.1c2.7,0.1,5.4,0.6,7.7,1.5
				c2.3,0.9,4.4,2.2,6.2,3.6c1.8,1.4,3.2,3,4.3,4.6c0.3,0.4,0.6,0.8,0.8,1.2c0.1,0.2,0.3,0.4,0.4,0.6c0.1,0.2,0.3,0.4,0.4,0.6
				c0.2,0.4,0.4,0.7,0.6,1c0.3,0.3,0.6,0.6,1,0.8c0.8,0.4,1.6,0.6,2.4,0.5l0.7-0.1l0.4-0.1l0.8-0.1c0.6,0,1.1-0.1,1.7-0.1
				c1.1,0,2.2,0,3.2,0.1c2.1,0.2,4.1,0.5,5.9,1c3.7,1,6.7,2.9,9,5.1c2.3,2.2,3.9,4.7,5,7.1c1.1,2.4,1.8,4.8,2.2,6.9
				c0.1,0.5,0.2,1,0.3,1.6c0.1,0.5,0.1,1,0.2,1.5c0.2,0.9,0.2,1.8,0.3,2.7c0.1,0.8,0.2,1.6,0.2,2.3c0,0.9,0.1,1.7,0.1,2.5
				c0.1,1.2,0.7,2,1.4,2.6c0.7,0.5,1.5,0.7,2.2,0.8c0.9,0,1.6,0,1.9,0c13.5,0,22.8-1.1,23.6-2.1c0.4-0.5-1.2-1.1-5.5-1.4
				c-2.1-0.2-4.9-0.4-8.4-0.5c-1.8-0.1-3.7-0.1-5.8-0.1c-1.1,0-2.2,0-3.3,0c-0.5,0-1,0-1.6,0c-0.1,0-0.2,0-0.3-0.1
				c0,0-0.1-0.1,0-0.2c0-0.4,0-1-0.1-1.8c-0.1-2.1-0.3-5.2-1.3-9.5c-0.5-2.1-1.3-4.6-2.5-7.2c-1.2-2.6-3.1-5.5-5.7-8.1
				c-2.7-2.6-6.3-4.8-10.6-6.1c-2.2-0.6-4.5-1-6.9-1.2c-1.2-0.1-2.4-0.1-3.7-0.1c-0.6,0-1.3,0.1-1.9,0.1c-0.3,0-0.6,0.1-1,0.1
				l-0.7,0.1c0,0-0.1,0-0.1-0.1c0-0.1-0.1-0.2-0.1-0.2c-0.2-0.3-0.4-0.7-0.6-1.1c-0.9-1.5-2.1-3.1-3.7-4.7c-1.5-1.6-3.5-3.3-5.8-4.7
				c-2.4-1.4-5.1-2.6-8.2-3.2c-3.1-0.7-6.4-0.8-9.9-0.5c-3.5,0.5-7.2,1.6-10.4,3.7c-3.3,2.1-6.1,5.2-8.1,8.6c-1,1.8-1.9,3.6-2.5,5.5
				c-0.3,1-0.7,1.9-0.9,2.9c-0.1,0.5-0.3,1-0.4,1.5l-0.2,0.8l-0.1,0.4c0,0,0,0,0,0l0,0l-0.2,0l-0.4,0c-0.3,0-0.6,0-0.9,0
				c-0.6,0-1.2,0-1.8,0c-2.5,0-5.3,0.3-8.2,1.2c-1.4,0.5-2.8,1.3-4.1,2.2c-1.3,1-2.4,2.3-3.2,3.6c-0.2,0.3-0.4,0.7-0.6,1l-0.5,1
				l-0.1,0.2l0,0l0,0c0,0,0,0.1,0,0l-0.1,0l-0.8,0c-0.7,0-1.3,0-2,0C-4965.2-2046.3-4985.1-2045.6-4979.2-2044.6z"/>
		</g>
	</g>
</g>
<g>
	<g>
		<g>
			<path fill="#505A78" d="M-3261.1-2038.6c-4.3-2.2-24.4-1.8-30.1-1.9c-3,0-5.9-0.1-8.8-0.1c-1.4,0-2.8,0-4.2,0c-0.7,0-1.4,0-2.1,0
				l-0.6,0c-0.1,0-0.2,0-0.3,0l-0.1-0.2l-0.1-0.1l0-0.1l-0.1-0.1c-0.3-0.5-0.5-1-0.8-1.5c-0.6-1-1.2-2-1.8-2.9c-1.3-1.9-3-3.6-4.8-5
				c-3.7-2.9-8.5-4.5-13.4-4.7c-3.9-0.1-8,0.3-11.8,1.8c-3.8,1.5-7.2,4-9.9,7.1c-2.7,3-4.8,6.5-6.3,10.2c-0.8,1.8-1.4,3.7-1.8,5.6
				l-0.2,0.7l0,0.2c0,0,0,0,0,0l0,0l0,0c0,0,0,0,0,0c-0.2-0.1-0.3-0.1-0.4-0.2c-1.8-0.8-3.9-1.5-6.2-1.9c-2.3-0.4-5-0.3-7.5,0.8
				c-1.2,0.5-2.4,1.3-3.3,2.2c-0.9,0.9-1.7,2-2.3,3c-1.1,2.1-1.7,4.3-2.1,6.2c0,0.1,0,0.1,0,0.2c0,0,0,0,0,0c0,0,0,0.1,0,0.1
				c0,0.1,0,0.2,0,0.2c-0.1,0-0.2,0-0.3,0c0,0,0,0-0.1,0c-0.1,0-0.3,0-0.4,0c-0.3,0-0.6,0-0.8,0c-2.3,0-5,0.1-7.8,0.1
				c-5.5,0.1-11.2,0.2-14.4,0.2c-7.6,0-10.4,3.4,0.8,3.4c3.1,0,10.4,0,17.3,0c1.7,0,3.4,0,5,0c1.3,0,2.5,0,3.7,0l0.2,0
				c0.1,0,0-0.1,0.1-0.2l0.1-0.5c0.1-0.3,0.1-0.6,0.2-0.9c0.1-0.6,0.2-1.2,0.3-1.8c0.5-2.4,1.2-3.9,1.4-4.4c0.8-1.5,1.7-2.7,2.9-3.4
				c1.2-0.8,2.5-1.2,4-1.2c1.5-0.1,3,0.2,4.4,0.6c0.7,0.2,1.5,0.4,2.2,0.7c0.8,0.3,1.2,0.4,2.7,1.2c1,0.4,1.8,0.6,2.7,0.2
				c0.4-0.2,0.8-0.5,1.1-0.8c0.1-0.1,0.2-0.4,0.3-0.6l0.2-0.7c0.1-0.5,0.3-0.9,0.4-1.5l0.2-0.9c0.1-0.6,0.3-1.1,0.4-1.6
				c0.6-2.2,1.5-4.3,2.6-6.4c2.2-4.1,5.2-7.9,9.5-10.3c2.7-1.5,5.7-2.5,8.8-2.9c0.8-0.1,1.6-0.1,2.4-0.1c0.4,0,0.8-0.1,1.2-0.1
				l1.2,0.1c1.6,0.1,3.1,0.3,4.6,0.7c1.5,0.4,2.9,1,4.2,1.7c1.3,0.8,2.5,1.7,3.6,2.7c1.1,1,2.1,2.3,2.9,3.6c0.4,0.6,0.8,1.3,1.2,2
				l0.3,0.5l0.1,0.3c0,0,0.1,0.1,0.1,0.2l0.1,0.3l1,2.3c2.8,0,5.6,0,8.3,0c2.3,0,4.5,0,6.7,0.1
				C-3293.4-2036.5-3257.2-2036.6-3261.1-2038.6z"/>
		</g>
	</g>
</g>
<g>
	<g>
		<g>
			<path fill="#505A78" d="M-2015.4-2060.2c4.3,2.2,24.4,1.8,30.1,1.9c3,0,5.9,0.1,8.8,0.1c3.2,0,6.4,0,9.4,0
				c0.4-0.8,0.7-1.7,1.1-2.5c0.2-0.4,0.5-0.9,0.7-1.3c0.5-0.9,1-1.7,1.6-2.5c1.2-1.6,2.6-3,4.2-4.2c3.2-2.4,7.1-3.6,11.4-3.6
				c3.4,0.1,6.9,0.6,10,1.9c3.1,1.3,5.9,3.5,8.1,6.1c2.3,2.6,4,5.7,5.4,8.9c0.7,1.6,1.2,3.3,1.6,4.9l0.1,0.6l0.1,0.5
				c0,0.2,0.1,0.4,0.2,0.6l0.4,1.2l0.2,0.6l0.1,0.3c0,0.1,0.1,0.1,0.2,0.2c0.5,0.5,1.3,1,2,1.1c0.4,0.1,0.7,0.1,1.1,0
				c0.2,0,0.4-0.1,0.6-0.1l0.6-0.3c0.4-0.2,0.7-0.4,1-0.5l0.4-0.2l0.2-0.1c1.5-0.7,3.2-1.3,5-1.6c1.8-0.3,3.6-0.3,5.1,0.3
				c0.8,0.3,1.4,0.7,2.1,1.3c0.6,0.6,1.1,1.2,1.6,2c0.9,1.5,1.5,3.2,1.8,4.9c0,0.1,0,0.2,0.1,0.3c0,0.2,0.1,0.3,0.1,0.5
				c0.1,0.3,0.1,0.6,0.2,1c0.1,0.3,0.1,0.7,0.2,1.1c0,0.2,0.1,0.4,0.1,0.6c0,0.1,0,0.2,0.1,0.3l0.3,0c1.4,0,2.9,0,4.6-0.1
				c2.3,0,5-0.1,7.8-0.1c5.5-0.1,11.2-0.2,14.4-0.2c7.6,0,10.4-3.4-0.8-3.4c-3.1,0-10.4,0-17.3,0c-1.7,0-3.4,0-5,0
				c-0.3,0-0.6,0-0.8,0c-0.1-0.1-0.1-0.3-0.1-0.4c-0.5-2.7-1.4-4.7-1.7-5.3c-0.9-1.9-2.2-3.8-4.1-5c-1.8-1.3-4-1.9-6-2
				c-2-0.1-3.9,0.2-5.6,0.7c-0.9,0.2-1.7,0.5-2.5,0.9c-0.8,0.3-1.9,0.8-1.8,0.8c-0.1,0.1-0.2,0.2-0.4,0.1c-0.2,0-0.2-0.2-0.2-0.3
				l-0.2-1c-0.1-0.6-0.3-1.2-0.5-1.8c-0.7-2.4-1.7-4.8-2.9-7c-2.4-4.5-5.6-8.9-10.5-12.1c-3.1-2.1-6.7-3.4-10.4-4
				c-0.9-0.1-1.9-0.2-2.8-0.2c-0.5,0-0.9-0.1-1.4-0.1l-1.4,0c-1.9,0.1-3.8,0.4-5.6,0.8c-1.9,0.5-3.6,1.3-5.3,2.2
				c-1.7,1-3.2,2.2-4.6,3.5c-1.4,1.3-2.5,2.8-3.6,4.4c-0.5,0.8-1,1.6-1.4,2.4l-0.5,1l0,0.1c-1.8,0-3.5,0-5.3,0c-2.3,0-4.5,0-6.7-0.1
				C-1983.1-2062.3-2019.3-2062.1-2015.4-2060.2z"/>
		</g>
	</g>
</g>
<g>
	<g>
		<path fill="#505A78" d="M-4226.4-2064.2c-1.3-1.1-4.6-1.7-8.3-2c-2-0.1-4-0.2-6-0.3c-0.4,0-0.9,0-1.3,0c-0.2,0-0.4,0-0.5-0.1
			c-0.3-0.3-0.1-0.3-0.8-1.5c-1.2-2.2-2.9-3.6-4.1-4.2c-0.9-0.5-1.9-0.9-2.9-1.1c-1-0.2-2-0.3-2.9-0.3c-0.9,0-1.9,0.1-2.7,0.3
			l-0.3,0.1l-0.2,0c-0.1,0-0.2,0-0.3-0.1c-0.1-0.1-0.1-0.2-0.2-0.3l-0.2-0.3l-0.4-0.5c-0.5-0.6-1-1.3-1.5-1.9
			c-1.1-1.2-2.2-2.4-3.4-3.5c-2.4-2.2-5-4.2-7.9-5.8c-3-1.6-6.3-2.8-10-3.2c-7.3-0.9-14.9,1.4-20.7,6c-2.9,2.3-5.4,5.2-7.2,8.4
			c-0.5,0.8-0.9,1.6-1.2,2.5c-0.4,0.8-0.7,1.7-1,2.6c-0.3,0.9-0.5,1.8-0.7,2.7l-0.1,0.3l0,0.2c0,0,0,0.2,0,0l0,0l0,0
			c0,0,0,0.1,0,0.1l0,0l0,0l-0.3-0.1c-0.4-0.1-0.8-0.2-1.2-0.3c-0.8-0.2-1.6-0.3-2.5-0.4c-1.7-0.2-3.5-0.1-5.3,0.2
			c-1.8,0.3-3.4,1-4.9,1.8c-1.5,0.8-2.8,1.9-3.8,3c-0.6,0.7-1.6,1.8-2.4,3.3c-0.8,1.5-1.5,3.3-1.9,5.2c-0.2,1-0.3,1.9-0.4,2.9l0,0.4
			l0,0.2c0,0,0,0,0,0c0,0.1,0,0.1,0,0.2c0,0.1-0.1,0.2-0.2,0.4c-0.1,0.1-0.2,0.2-0.3,0.2c-0.1,0-0.1,0-0.2,0l-0.1,0l-0.3,0
			c-0.8,0-1.7,0-2.4,0c-2.1,0-3.5,0-4.6,0c-5.7,0-7.8,4.2,0.6,4.2c0.8,0,1.9,0,4,0c0.9,0,2,0,3.1,0c1.9,0,3.8-1.3,4.5-3.3
			c0.2-0.5,0.3-1,0.3-1.5c0-0.3,0-0.5,0.1-0.8c0.1-0.5,0.1-1.1,0.3-1.6c0.2-1.1,0.5-2.1,0.9-3c0.8-1.9,1.9-3.3,3-4.1
			c1-0.9,2-1.3,2.3-1.5c0.9-0.4,1.8-0.7,2.8-0.9c0.9-0.2,1.8-0.3,2.8-0.3c0.9,0,1.8,0.1,2.7,0.3c0.4,0.1,0.9,0.2,1.3,0.3l0.7,0.2
			c0.4,0.2,0.8,0.3,1.3,0.5l0.8,0.4l0.8,0.2c0.3,0,0.5,0,0.7,0.1c0.2,0,0.4,0,0.6,0c0.3,0,0.9-0.3,1.2-0.6c0.2-0.2,0.3-0.3,0.4-0.5
			l0.2-0.7c0.2-1,0.5-2,0.7-2.9c0-0.1,0-0.3,0.1-0.5l0-0.2l0.1-0.4l0.2-0.8c0.5-2.2,1.4-4.3,2.6-6.3c2.5-3.8,6.2-7.2,11-8.9
			c1.7-0.7,3.4-1.1,5.1-1.4c0.9-0.1,1.8-0.2,2.6-0.3c0.9,0,1.8-0.1,2.6,0c3.4,0.2,6.9,1.2,10,3c1.6,0.9,3.1,1.9,4.5,3.1
			c1.4,1.2,2.8,2.4,4,3.8c0.6,0.7,1.2,1.4,1.8,2.1c0.1,0.2,0.3,0.4,0.4,0.5l0.4,0.5c0.1,0.2,0.3,0.4,0.5,0.6l0.5,0.5
			c0.2,0.2,0.3,0.4,0.5,0.5c0.4,0.2,0.8,0.4,1.2,0.5c0.5,0.1,0.9,0.2,1.3,0.1c0.5,0,0.9-0.2,1.4-0.3l0.3-0.1l0.1,0l0.3-0.1
			c0.2,0,0.4-0.1,0.6-0.1c0.8-0.1,1.5-0.1,2.2,0c0.1,0,0.8,0.1,1.6,0.4c0.8,0.3,1.8,1,2.6,2.4c0.1,0.1,0.2,0.3,0.3,0.5l0.2,0.4
			l0.3,0.6c0.4,0.8,1,1.4,1.8,1.9c0.8,0.4,1.7,0.5,2.7,0.5c0.6,0,1.1,0,1.7-0.1c2-0.1,4-0.2,5.9-0.3
			C-4229.4-2062.5-4225.2-2063.2-4226.4-2064.2z"/>
	</g>
</g>
<g>
	<g>
		<path fill="#505A78" d="M-3103.5,1106.5c-0.8,5.1-9.9,11.8-11,12.6c-0.1,0-0.1,0-0.2,0c-1.1-0.8-10.6-7.9-11-12.6
			c-0.3-3.6,2.3-6.6,6-6.6c3.1,0,4.5,2.6,4.9,3.5c0.1,0.1,0.2,0.1,0.3,0c0.4-0.8,1.8-3.5,4.9-3.5
			C-3104.9,1099.8-3103,1103.4-3103.5,1106.5z"/>
	</g>
	<g>
		<g>
			<path fill="#505A78" d="M-3103.3,1106.3l0-0.3c0-0.4,0-0.7,0-1.1c-0.1-0.7-0.3-1.4-0.5-2.1c-0.6-1.3-1.5-2-2.1-2.4
				c-1-0.6-2.2-0.9-3.3-1c-1.1-0.1-2.3,0.2-3.3,0.8c-0.7,0.4-1.2,1-1.7,1.7c-0.2,0.3-0.5,0.8-0.5,0.7c0,0,0,0.1-0.1,0l0-0.1
				c-0.3-0.5-0.7-1.1-1.2-1.6c-0.8-0.8-1.9-1.4-3-1.5c-1.2-0.1-2.3,0.1-3.4,0.5c-1.7,0.7-3.1,2.1-3.6,3.9c-0.3,0.9-0.3,1.8-0.2,2.7
				c0.1,0.5,0.2,0.9,0.4,1.3l0.3,0.6l0.3,0.6c0.9,1.6,2,2.9,3.2,4.1c1.2,1.3,2.4,2.4,3.6,3.5c0.6,0.5,1.3,1.1,2.1,1.7
				c0.4,0.3,0.8,0.6,1.2,0.9c0.2,0.1,0.3,0.2,0.6,0.2c0.2,0,0.4-0.2,0.5-0.3l0.6-0.4c1.5-1.2,3-2.4,4.2-3.6c0.8-0.8,2.7-2.5,4.2-4.6
				c0.8-1.1,1.5-2.4,1.7-3.5c0-0.2,0.1-0.4,0.1-0.5l-0.5-0.1c0,0.1-0.1,0.2-0.1,0.5c-0.2,1-1.2,2.8-2.4,4.3c-2.1,2.5-4.5,4.6-5,4.9
				c-0.7,0.6-1.5,1.2-2.2,1.8c-0.3,0.3-0.7,0.5-1,0.8c0,0-0.1,0-0.1,0l-0.2-0.1l-0.5-0.4c-1.5-1.2-2.9-2.4-4.3-3.6
				c-1.3-1.3-2.7-2.6-3.8-4.1c-0.5-0.7-1-1.5-1.4-2.3c-0.3-0.8-0.5-1.7-0.5-2.6c0.1-1.9,1.1-3.7,2.8-4.6c1.7-0.9,3.8-0.9,5.3,0.2
				c0.7,0.5,1.3,1.1,1.8,2c0.1,0.2,0.2,0.5,0.4,0.6c0.1,0,0.1,0.1,0.2,0.1c0.1,0,0.2,0,0.3,0c0.2-0.1,0.3-0.1,0.4-0.4l0.3-0.5
				c0.3-0.4,0.6-0.9,0.9-1.2c0.7-0.7,1.5-1.2,2.4-1.3c0.9-0.1,1.9,0,2.8,0.2c0.4,0.1,1,0.3,1.6,0.7c0.6,0.4,1.4,1.1,1.8,2.3
				c0.3,0.7,0.4,1.5,0.4,2.4c0,0.1,0,0.3,0,0.4l0.5,0.1L-3103.3,1106.3z"/>
		</g>
	</g>
</g>
<g>
	<g>
		<path fill="#505A78" d="M-3829.9,1167.6l-2.5-2.2c-0.2-0.2-0.2-0.5,0-0.8l2.2-2.5c0.1-0.1,0.2-0.3,0.1-0.5c0,0-1.2-2.9-1.2-3.1
			c-0.4-0.8-1.7-3.2-4.5-3.2c-3.5,0-5.9,2.8-5.6,6.1c0.4,4.4,9.2,10.9,10.1,11.6c0.1,0,0.1,0,0.2,0c0,0,0.1,0,0.1-0.1l1.3-4.9
			C-3829.7,1168-3829.8,1167.8-3829.9,1167.6z"/>
		<g>
			<path fill="#505A78" d="M-3829.9,1167.7L-3829.9,1167.7c0.2,0.3,0.1,0.5,0,0.7c-0.1,0.5-0.3,1-0.4,1.4c-0.2,0.9-0.4,1.7-0.5,2.1
				l-0.2,0.6l-0.1,0.3c0,0.1,0,0.2-0.1,0.2c-0.1,0.1-0.1,0.1-0.2,0l-0.2-0.2l-0.5-0.4c-0.6-0.5-1.2-0.9-1.8-1.4
				c-1.2-1-2.3-2-3.4-3.1c-1-1.1-2.1-2.2-3-3.5c-0.6-1-1.2-2.1-1.2-3.3c0-1.2,0.3-2.4,1-3.4c0.7-1,1.7-1.7,2.9-2
				c1.2-0.3,2.4-0.3,3.4,0.2c1,0.5,2.1,1.6,2.6,2.8c0.3,0.6,0.5,1.3,0.8,1.9c0.1,0.3,0.2,0.6,0.4,0.9c0.2,0.3,0.1,0.5-0.1,0.7
				c-0.3,0.3-0.7,0.8-1.2,1.4c-0.3,0.3-0.5,0.6-0.8,0.9c-0.2,0.1-0.3,0.4-0.2,0.7c0.1,0.3,0.3,0.4,0.5,0.5c0.7,0.6,1.5,1.3,2.1,1.8
				C-3830,1167.6-3830,1167.7-3829.9,1167.7l0.1-0.1c0,0,0,0-0.1-0.1c-0.3-0.3-0.7-0.6-1.2-1.1c-0.2-0.2-0.5-0.4-0.8-0.7
				c-0.2-0.2-0.6-0.4-0.6-0.8c0-0.3,0.3-0.4,0.5-0.7c0.2-0.2,0.4-0.4,0.6-0.6c0.4-0.4,0.7-0.8,1-1.1c0.1-0.2,0.3-0.3,0.4-0.5
				c0.1-0.2,0-0.4-0.1-0.6c-0.1-0.3-0.2-0.5-0.2-0.6c-0.6-1.3-0.9-2.6-1.8-3.6c-0.9-1.1-2.1-1.8-3.5-1.9c-1.3-0.1-2.7,0.3-3.8,1.2
				c-1,0.8-1.8,2-2,3.5c-0.1,0.7-0.1,1.5,0.1,2.2c0.1,0.4,0.3,0.7,0.4,1.1l0.5,1c0.8,1.3,1.7,2.4,2.7,3.4c1,1.1,2.1,2,3.2,3
				c0.6,0.5,1.1,0.9,1.7,1.4l0.9,0.7l0.4,0.3l0.2,0.2c0.1,0,0.2,0,0.2,0c0.1-0.1,0.1,0,0.2-0.1c0.2-0.8,0.4-1.8,0.9-3.7
				c0.1-0.3,0.1-0.6,0.2-0.9l0.1-0.5c0-0.2,0-0.4-0.1-0.5c0,0-0.1-0.1-0.1-0.1L-3829.9,1167.7L-3829.9,1167.7z"/>
		</g>
	</g>
	<g>
		<path fill="#505A78" d="M-3824.9,1155.4c-2.3,0-3.6,1.6-4.2,2.6c-0.2,0.3-0.2,0.6-0.1,0.9l0.7,2.8c0.1,0.2,0,0.4-0.1,0.5l-2.2,2.5
			c-0.2,0.2-0.2,0.6,0,0.8l2.5,2.2c0.2,0.1,0.2,0.3,0.2,0.5l-1,4c-0.1,0.3,0.3,0.5,0.5,0.3c2.4-1.8,8.7-7,9.3-11
			C-3818.9,1158.7-3820.7,1155.4-3824.9,1155.4z"/>
		<g>
			<path fill="#505A78" d="M-3824.9,1155.5L-3824.9,1155.5c0.3,0,0.6,0,0.8,0.1c0.5,0.1,0.9,0.2,1.4,0.3c0.8,0.3,1.5,0.8,1.8,1.1
				c1.1,1.1,1.6,2.6,1.6,4c-0.1,1.5-0.8,2.8-1.6,4c-0.8,1.2-1.8,2.3-2.9,3.4c-0.8,0.8-1.7,1.6-2.6,2.4l-1.4,1.1l-0.7,0.6
				c-0.1,0.1-0.2,0.2-0.3,0.1c-0.1,0-0.2-0.1-0.2-0.2c0.3-1.1,0.6-2.3,0.9-3.4c0.1-0.3,0.2-0.5,0.2-0.9c0-0.2-0.1-0.3-0.3-0.4
				l-0.3-0.3c-0.4-0.4-0.9-0.8-1.3-1.2c-0.2-0.2-0.4-0.4-0.7-0.6c-0.3-0.2-0.4-0.5-0.2-0.7c0.4-0.5,0.9-1,1.3-1.5l0.7-0.7
				c0.1-0.1,0.2-0.2,0.3-0.4c0.1-0.2,0.1-0.4,0-0.5c-0.2-0.6-0.3-1.2-0.5-1.8c-0.1-0.2-0.1-0.4-0.2-0.7c-0.1-0.3-0.2-0.6,0-0.9
				c0.3-0.6,0.9-1.3,1.6-1.9c0.7-0.5,1.7-0.8,2.4-0.8C-3825,1155.5-3825,1155.5-3824.9,1155.5l0-0.1c0,0-0.1,0-0.1,0
				c-0.4,0-0.9,0.1-1.5,0.3c-0.6,0.2-1.2,0.6-1.7,1.1c-0.4,0.4-0.7,0.9-1,1.4c-0.1,0.3-0.1,0.6,0,0.8c0.1,0.2,0.1,0.5,0.2,0.7
				c0.2,0.9,0.4,1.5,0.5,1.7c0,0.2,0.1,0.3,0.1,0.5c0,0.1,0,0.3-0.2,0.4c-0.2,0.2-0.4,0.5-0.7,0.7c-0.4,0.5-0.9,1-1.3,1.4
				c-0.1,0.1-0.2,0.2-0.3,0.4c-0.1,0.2-0.1,0.4,0,0.5c0.2,0.3,0.5,0.5,0.7,0.7c0.5,0.4,1,0.9,1.4,1.3c0.2,0.2,0.6,0.4,0.6,0.7
				c0,0.3-0.1,0.6-0.2,0.9c-0.2,0.6-0.3,1.3-0.5,1.9c-0.1,0.3-0.2,0.6-0.2,0.9l-0.1,0.5c0,0.2,0.1,0.4,0.3,0.5
				c0.2,0.1,0.4-0.1,0.5-0.2l0.4-0.3c0.3-0.2,0.5-0.4,0.8-0.6c1.1-0.9,2.2-1.8,3.2-2.8c1-1,2-2,2.8-3.2c0.8-1.1,1.6-2.4,1.9-3.8
				c0.3-1.4,0.1-2.9-0.8-4.1c-0.4-0.5-1.1-1.5-3-2.1c-0.6-0.2-1.2-0.2-1.8-0.2l-0.1,0L-3824.9,1155.5L-3824.9,1155.5z"/>
		</g>
	</g>
</g>
<g>
	<g>
		<g>
			<path fill="#505A78" d="M-3114.7,1148.2c0,0,0,0.1,0,0.1c-0.4,1.8-0.9,3.5-1.1,4.2l-0.1,0.2c0,0.1-0.1,0.1-0.1,0l-0.1-0.1
				l-0.4-0.3c-0.6-0.5-1.2-0.9-1.7-1.4c-1.2-0.9-2.3-1.9-3.4-2.9c-1-1-2.1-2-3-3.3c-0.6-1-1-2-1.1-3.1c-0.1-1.1,0.1-2.2,0.7-3.1
				c0.6-0.9,1.5-1.6,2.5-2c1.1-0.3,2.1-0.4,3.1,0c0.9,0.3,2,1.2,2.6,2.3c0.3,0.6,0.6,1.2,0.8,1.8c0.1,0.3,0.3,0.6,0.4,0.9
				c0.1,0.1,0.1,0.3,0.2,0.4c0,0.1,0,0.1,0,0.1c0,0,0,0,0,0.1c-0.2,0.3-0.6,0.7-1.1,1.3c-0.2,0.3-0.5,0.6-0.7,0.9l-0.2,0.2
				c-0.1,0.1-0.2,0.2-0.3,0.4c-0.1,0.3-0.1,0.7,0.2,1c0.1,0.1,0.1,0.1,0.2,0.2l0.1,0.1l0.3,0.2c0.2,0.1,0.4,0.3,0.6,0.4
				c0.4,0.3,0.7,0.6,1,0.8C-3115.1,1147.9-3114.9,1148-3114.7,1148.2l0.4-0.6c-0.1-0.1-0.2-0.2-0.5-0.4c-0.3-0.2-0.7-0.6-1.2-1
				c-0.2-0.2-0.5-0.4-0.8-0.6c-0.1-0.1-0.1-0.3,0-0.4l2-2.4c0.2-0.2,0.3-0.4,0.3-0.7c0-0.1,0-0.2-0.1-0.4l-0.1-0.2l-0.4-0.8
				c-0.3-0.6-0.5-1.3-0.8-1.9c-0.3-0.6-0.7-1.2-1.2-1.7c-1-1.1-2.4-1.8-3.8-1.7c-1.4,0.1-2.8,0.5-3.9,1.5c-1,0.9-1.8,2.2-2,3.7
				c-0.1,0.8-0.1,1.5,0.1,2.3c0.1,0.4,0.3,0.7,0.4,1.1c0.2,0.3,0.4,0.7,0.6,1c0.8,1.3,1.8,2.4,2.8,3.4c1,1,2.2,1.9,3.3,2.8
				c0.6,0.5,1.1,0.9,1.7,1.4l0.8,0.7l0.2,0.2l0.3,0.2c0.1,0.1,0.3,0.2,0.4,0.3l0.4,0.1c0.1,0.1,0.3,0,0.4-0.1c0.1,0,0.1-0.1,0.2-0.1
				c0-0.1,0.1-0.1,0.1-0.2c0.1-0.1,0.1-0.4,0.2-0.6c0-0.2,0.1-0.3,0.1-0.5c0.1-0.6,0.3-1.3,0.4-2.2c0.1-0.6,0.2-1.2,0.3-1.8
				c0-0.4-0.1-0.7-0.4-0.9L-3114.7,1148.2C-3114.7,1148.1-3114.7,1148.1-3114.7,1148.2z"/>
		</g>
	</g>
	<g>
		<g>
			<path fill="#505A78" d="M-3108,1135.8c0.1,0,0.2,0,0.3,0c0.8,0.1,1.6,0.4,2.2,0.8c0.6,0.4,1,0.8,1.2,1c0.9,1.1,1.1,2.5,1,3.8
				c-0.2,1.3-1,2.5-1.8,3.6c-0.9,1.1-1.8,2.2-2.9,3.1c-0.9,0.7-1.8,1.4-2.7,2.1c-0.5,0.3-0.9,0.7-1.3,1.1c0,0-0.1,0.1-0.1,0.1l0,0
				l-0.1,0.1c0,0.1-0.1,0.1-0.1,0c0,0,0-0.1,0-0.1c0.2-0.8,0.5-1.6,0.7-2.4l0.1-0.4l0.1-0.2l0-0.1c0-0.1,0-0.1,0-0.2
				c0-0.3,0-0.5-0.1-0.7c-0.2-0.2-0.3-0.3-0.4-0.4c-0.4-0.4-0.8-0.8-1.2-1.2c-0.2-0.2-0.5-0.5-0.8-0.7l-0.1-0.1l0,0c0,0,0,0,0,0
				c0,0,0-0.1,0-0.1c0.3-0.3,0.7-0.8,1.1-1.1c0.3-0.3,0.6-0.6,0.8-0.9l0.2-0.2l0.1-0.1c0,0,0.1-0.1,0.1-0.2c0.2-0.3,0.2-0.6,0.1-0.8
				c-0.1-0.5-0.2-1-0.3-1.4c0-0.2-0.1-0.4-0.2-0.7c0-0.3-0.2-0.7-0.2-0.8c0-0.1,0-0.2,0.1-0.3c0.1-0.2,0.2-0.3,0.3-0.5
				c0.2-0.3,0.5-0.6,0.8-0.8c0.6-0.5,1.5-0.9,2.1-1c0.3,0,0.5,0,0.6-0.1l0-0.7c-0.1,0-0.3,0-0.7,0c-0.4,0-1,0.2-1.6,0.4
				c-0.6,0.3-1.2,0.7-1.7,1.3c-0.3,0.3-0.5,0.6-0.8,1c-0.1,0.2-0.2,0.5-0.1,0.8c0,0.3,0.1,0.4,0.1,0.6l0.5,2.3l0,0
				c0,0.2,0,0.2-0.3,0.5c-0.2,0.2-0.5,0.5-0.7,0.7c-0.4,0.5-0.9,0.9-1.3,1.3l0,0c-0.4,0.4-0.4,1,0,1.4l0.7,0.7
				c0.5,0.4,0.9,0.9,1.3,1.3c0.3,0.3,0.3,0.3,0.3,0.4l-0.3,0.9c-0.2,0.6-0.4,1.2-0.6,1.8c-0.1,0.3-0.2,0.6-0.3,0.9
				c-0.1,0.2-0.1,0.4-0.1,0.5c0,0.1,0,0.3,0.1,0.4c0.1,0.1,0.2,0.3,0.4,0.3c0.2,0.1,0.3,0,0.4-0.1l0.5-0.2c0.2,0,0.4-0.3,0.5-0.3
				c0.2-0.1,0.4-0.3,0.7-0.5c1.1-0.8,2.2-1.7,3.3-2.6c1.1-0.9,2.1-1.9,3-3c0.9-1.1,1.7-2.3,2.1-3.8c0.5-1.4,0.5-3-0.2-4.4
				c-0.3-0.6-1-1.7-2.9-2.5c-0.6-0.2-1.2-0.4-1.8-0.4c-0.2,0-0.4,0-0.6,0l0,0.7C-3108.2,1135.8-3108.1,1135.8-3108,1135.8z"/>
		</g>
	</g>
</g>
<g>
	<g>
		<g>
			<path fill="#505A78" d="M-3103.1,1067.2c0-0.1,0.1-0.3,0.1-0.4c0-0.4,0-0.7,0-1.1c-0.1-0.7-0.3-1.5-0.6-2.1
				c-0.6-1.3-1.6-2-2.2-2.4c-1.1-0.6-2.2-0.9-3.4-0.9c-1.2-0.1-2.4,0.2-3.3,0.9c-0.7,0.5-1.3,1.1-1.8,1.8l-0.2,0.2l0,0.1
				c-0.1,0.1-0.1-0.1-0.1-0.1c0,0,0-0.1-0.2-0.2c-0.1-0.1-0.2-0.3-0.3-0.4c-0.2-0.3-0.4-0.5-0.7-0.7c-0.8-0.8-1.9-1.4-3.1-1.5
				c-1.2-0.1-2.3,0.1-3.5,0.5c-1.7,0.7-3.2,2.1-3.8,3.9c-0.3,0.9-0.3,1.9-0.2,2.8c0.1,0.5,0.2,1,0.4,1.4l0.3,0.6l0.3,0.6
				c0.9,1.6,2,2.9,3.2,4.1c1.2,1.3,2.3,2.4,3.6,3.5c0.6,0.5,1.3,1.1,2.1,1.7c0.4,0.3,0.8,0.6,1.2,0.9c0.7,0.8,1.6-0.3,1.8-0.4
				c1.5-1.2,3-2.4,4.2-3.5c0.8-0.8,2.7-2.5,4.2-4.6c0.8-1.1,1.5-2.4,1.8-3.5c0.1-0.4,0.1-0.6,0.2-0.8l-0.8-0.1
				c0,0.1-0.1,0.3-0.2,0.7c-0.3,1-1.3,2.8-2.5,4.2c-2.1,2.5-4.5,4.5-4.9,4.8c-0.7,0.6-1.5,1.2-2.2,1.8l-0.5,0.4l-0.2,0.1
				c0,0-0.1,0.1-0.1,0.1c0,0-0.1,0-0.1-0.1l-0.2-0.1l-0.5-0.4c-1.5-1.2-2.9-2.4-4.2-3.6c-1.3-1.2-2.6-2.5-3.8-4
				c-0.5-0.7-1-1.5-1.3-2.3c-0.3-0.8-0.5-1.6-0.4-2.5c0.1-1.8,1.1-3.6,2.7-4.4c0.8-0.4,1.7-0.6,2.6-0.6c0.9,0,1.7,0.2,2.5,0.7
				c0.3,0.2,0.6,0.5,0.9,0.8c0.1,0.1,0.3,0.3,0.4,0.5l0.2,0.2c0.1,0.1,0.2,0.3,0.3,0.4c0.2,0.5,0.6,0.8,0.8,0.8c0.1,0,0.2,0,0.3,0
				c0.1,0,0.1-0.1,0.2-0.1c0.1,0,0.1-0.1,0.2-0.2c0.1-0.1,0.1-0.2,0.2-0.3l0.4-0.6c0.1-0.2,0.2-0.2,0.2-0.4c0.2-0.2,0.3-0.4,0.5-0.6
				c0.6-0.7,1.5-1.1,2.3-1.3c0.8-0.1,1.8,0,2.7,0.2c0.4,0.1,0.9,0.3,1.6,0.6c0.6,0.4,1.3,1,1.8,2.1c0.3,0.7,0.5,1.5,0.5,2.2
				c0,0.2,0,0.4,0,0.6l0.8,0.1L-3103.1,1067.2z"/>
		</g>
	</g>
</g>
<g>
	<g>
		<g>
			<g>
				<path fill="#505A78" d="M-3818.3,1121.6c0-0.1,0.1-0.3,0.1-0.4c0-0.4,0-0.7,0-1.1c-0.1-0.7-0.3-1.5-0.6-2.1
					c-0.6-1.3-1.6-2-2.2-2.4c-1.1-0.6-2.2-0.9-3.4-0.9c-1.2-0.1-2.4,0.2-3.3,0.9c-0.7,0.5-1.3,1.1-1.8,1.8l-0.2,0.2l0,0.1
					c-0.1,0.1-0.1-0.1-0.1-0.1c0,0,0-0.1-0.2-0.2c-0.1-0.1-0.2-0.3-0.3-0.4c-0.2-0.3-0.4-0.5-0.7-0.7c-0.8-0.8-1.9-1.4-3.1-1.5
					c-1.2-0.1-2.3,0.1-3.5,0.5c-1.7,0.7-3.2,2.1-3.8,3.9c-0.3,0.9-0.3,1.9-0.2,2.8c0.1,0.5,0.2,1,0.4,1.4l0.3,0.6l0.3,0.6
					c0.9,1.6,2,2.9,3.2,4.1c1.2,1.3,2.3,2.4,3.6,3.5c0.6,0.5,1.3,1.1,2.1,1.7c0.4,0.3,0.8,0.6,1.2,0.9c0.7,0.8,1.6-0.3,1.8-0.4
					c1.5-1.2,3-2.4,4.2-3.5c0.8-0.8,2.7-2.5,4.2-4.6c0.8-1.1,1.5-2.4,1.8-3.5c0.1-0.4,0.1-0.6,0.2-0.8l-0.8-0.1
					c0,0.1-0.1,0.3-0.2,0.7c-0.3,1-1.3,2.8-2.5,4.2c-2.1,2.5-4.5,4.5-4.9,4.8c-0.7,0.6-1.5,1.2-2.2,1.8l-0.5,0.4l-0.2,0.1
					c0,0-0.1,0.1-0.1,0.1c0,0-0.1,0-0.1-0.1l-0.2-0.1l-0.5-0.4c-1.5-1.2-2.9-2.4-4.2-3.6c-1.3-1.2-2.6-2.5-3.8-4
					c-0.5-0.7-1-1.5-1.3-2.3c-0.3-0.8-0.5-1.6-0.4-2.5c0.1-1.8,1.1-3.6,2.7-4.4c0.8-0.4,1.7-0.6,2.6-0.6c0.9,0,1.7,0.2,2.5,0.7
					c0.3,0.2,0.6,0.5,0.9,0.8c0.1,0.1,0.3,0.3,0.4,0.5l0.2,0.2c0.1,0.1,0.2,0.3,0.3,0.4c0.2,0.5,0.6,0.8,0.8,0.8c0.1,0,0.2,0,0.3,0
					c0.1,0,0.1-0.1,0.2-0.1c0.1,0,0.1-0.1,0.2-0.2c0.1-0.1,0.1-0.2,0.2-0.3l0.4-0.6c0.1-0.2,0.2-0.2,0.2-0.4
					c0.2-0.2,0.3-0.4,0.5-0.6c0.6-0.7,1.5-1.1,2.3-1.3c0.8-0.1,1.8,0,2.7,0.2c0.4,0.1,0.9,0.3,1.6,0.6c0.6,0.4,1.3,1,1.8,2.1
					c0.3,0.7,0.5,1.5,0.5,2.2c0,0.2,0,0.4,0,0.6l0.8,0.1L-3818.3,1121.6z"/>
			</g>
		</g>
	</g>
	<g>
		<g>
			<g>
				<path fill="#505A78" d="M-3829.7,1134c0.6-0.3,1.1-2.2,1.3-2.8c0.1-0.5,0.3-0.9,0.4-1.4l0.2-0.7c0.1-0.3,0-0.8-0.3-1.1
					c-0.4-0.3-0.7-0.7-1.1-1.1c-0.4-0.3-0.7-0.7-1.1-1l-0.3-0.3l-0.1-0.1l0,0c0,0,0,0,0,0c0.4-0.4,0.7-0.8,1.1-1.2
					c0.2-0.3,0.5-0.6,0.8-0.9c0.1-0.2,0.3-0.3,0.4-0.5c0,0,0.1-0.1,0.1-0.2c0.1-0.1,0.1-0.2,0.1-0.3c0.1-0.2,0.1-0.4,0-0.5
					c0,0,0-0.1,0-0.2c-0.2-0.5-0.7-1.9-0.9-2.5c-0.2-0.7-1.1-0.7-0.8,0.3c0.2,0.5,0.7,2,0.8,2.5c0,0.1,0,0.1,0,0.1
					c-0.9,0.9-1.6,1.8-2.4,2.7c-0.3,0.3-0.4,0.8-0.2,1.2c0.1,0.2,0.3,0.4,0.3,0.4c0.1,0.1,0.2,0.2,0.3,0.3c0.7,0.7,1.5,1.4,2.2,2.1
					c0,0,0,0,0,0l-0.2,0.6c-0.1,0.4-0.2,0.8-0.4,1.2C-3829.3,1130.7-3830.3,1134.2-3829.7,1134z"/>
			</g>
		</g>
	</g>
</g>
<g>
	<g>
		<path fill="#505A78" d="M-3114.6,1186.9l-2.5-2.1c-0.2-0.2-0.3-0.5-0.1-0.8l2.1-2.5c0.1-0.1,0.2-0.3,0.1-0.5c0,0-1.3-2.9-1.3-3
			c-0.4-0.8-1.8-3.2-4.6-3.1c-3.5,0.1-5.8,2.9-5.4,6.3c0.5,4.3,9.5,10.6,10.5,11.3c0.1,0,0.1,0,0.2,0c0,0,0.1-0.1,0.1-0.1l1.1-4.9
			C-3114.3,1187.2-3114.4,1187-3114.6,1186.9z"/>
		<g>
			<path fill="#505A78" d="M-3114.7,1187.2c0,0,0,0.1,0,0.1c-0.4,1.8-0.9,3.5-1.1,4.2l-0.1,0.2c0,0.1-0.1,0.1-0.1,0l-0.1-0.1
				l-0.4-0.3c-0.6-0.5-1.2-0.9-1.7-1.4c-1.2-0.9-2.3-1.9-3.4-2.9c-1-1-2.1-2-3-3.3c-0.6-1-1-2-1.1-3.1c-0.1-1.1,0.1-2.2,0.7-3.1
				c0.6-0.9,1.5-1.6,2.5-2c1.1-0.3,2.1-0.4,3.1,0c0.9,0.3,2,1.2,2.6,2.3c0.3,0.6,0.6,1.2,0.8,1.8c0.1,0.3,0.3,0.6,0.4,0.9
				c0.1,0.1,0.1,0.3,0.2,0.4c0,0.1,0,0.1,0,0.1c0,0,0,0,0,0.1c-0.2,0.3-0.6,0.7-1.1,1.3c-0.2,0.3-0.5,0.6-0.7,0.9l-0.2,0.2
				c-0.1,0.1-0.2,0.2-0.3,0.4c-0.1,0.3-0.1,0.7,0.2,1c0.1,0.1,0.1,0.1,0.2,0.2l0.1,0.1l0.3,0.2c0.2,0.1,0.4,0.3,0.6,0.4
				c0.4,0.3,0.7,0.6,1,0.8C-3115.1,1186.9-3114.9,1187-3114.7,1187.2l0.4-0.6c-0.1-0.1-0.2-0.2-0.5-0.4c-0.3-0.2-0.7-0.6-1.2-1
				c-0.2-0.2-0.5-0.4-0.8-0.6c-0.1-0.1-0.1-0.3,0-0.4l2-2.4c0.2-0.2,0.3-0.4,0.3-0.7c0-0.1,0-0.2-0.1-0.4l-0.1-0.2l-0.4-0.8
				c-0.3-0.6-0.5-1.3-0.8-1.9c-0.3-0.6-0.7-1.2-1.2-1.7c-1-1.1-2.4-1.8-3.8-1.7c-1.4,0.1-2.8,0.5-3.9,1.5c-1,0.9-1.8,2.2-2,3.7
				c-0.1,0.8-0.1,1.5,0.1,2.3c0.1,0.4,0.3,0.7,0.4,1.1c0.2,0.3,0.4,0.7,0.6,1c0.8,1.3,1.8,2.4,2.8,3.4c1,1,2.2,1.9,3.3,2.8
				c0.6,0.5,1.1,0.9,1.7,1.4l0.8,0.7l0.2,0.2l0.3,0.2c0.1,0.1,0.3,0.2,0.4,0.3l0.4,0.1c0.1,0.1,0.3,0,0.4-0.1c0.1,0,0.1-0.1,0.2-0.1
				c0-0.1,0.1-0.1,0.1-0.2c0.1-0.1,0.1-0.4,0.2-0.6c0-0.2,0.1-0.3,0.1-0.5c0.1-0.6,0.3-1.3,0.4-2.2c0.1-0.6,0.2-1.2,0.3-1.8
				c0-0.4-0.1-0.7-0.4-0.9L-3114.7,1187.2C-3114.7,1187.1-3114.7,1187.1-3114.7,1187.2z"/>
		</g>
	</g>
	<g>
		<path fill="#505A78" d="M-3108.3,1174.5c-2.3-0.1-3.6,1.4-4.3,2.4c-0.2,0.3-0.2,0.6-0.2,0.9l0.6,2.8c0.1,0.2,0,0.4-0.1,0.5
			l-2.3,2.4c-0.2,0.2-0.2,0.6,0,0.8l2.4,2.3c0.1,0.1,0.2,0.4,0.1,0.6l-1.2,3.9c-0.1,0.3,0.2,0.5,0.5,0.4c2.5-1.7,9-6.6,9.8-10.5
			C-3102.4,1178-3104,1174.7-3108.3,1174.5z"/>
		<g>
			<path fill="#505A78" d="M-3108,1174.8c0.1,0,0.2,0,0.3,0c0.8,0.1,1.6,0.4,2.2,0.8c0.6,0.4,1,0.8,1.2,1c0.9,1.1,1.1,2.5,1,3.8
				c-0.2,1.3-1,2.5-1.8,3.6c-0.9,1.1-1.8,2.2-2.9,3.1c-0.9,0.7-1.8,1.4-2.7,2.1c-0.5,0.3-0.9,0.7-1.3,1.1c0,0-0.1,0.1-0.1,0.1l0,0
				l-0.1,0.1c0,0.1-0.1,0.1-0.1,0c0,0,0-0.1,0-0.1c0.2-0.8,0.5-1.6,0.7-2.4l0.1-0.4l0.1-0.2l0-0.1c0-0.1,0-0.1,0-0.2
				c0-0.3,0-0.5-0.1-0.7c-0.2-0.2-0.3-0.3-0.4-0.4c-0.4-0.4-0.8-0.8-1.2-1.2c-0.2-0.2-0.5-0.5-0.8-0.7l-0.1-0.1l0,0c0,0,0,0,0,0
				c0,0,0-0.1,0-0.1c0.3-0.3,0.7-0.8,1.1-1.1c0.3-0.3,0.6-0.6,0.8-0.9l0.2-0.2l0.1-0.1c0,0,0.1-0.1,0.1-0.2c0.2-0.3,0.2-0.6,0.1-0.8
				c-0.1-0.5-0.2-1-0.3-1.4c0-0.2-0.1-0.4-0.2-0.7c0-0.3-0.2-0.7-0.2-0.8c0-0.1,0-0.2,0.1-0.3c0.1-0.2,0.2-0.3,0.3-0.5
				c0.2-0.3,0.5-0.6,0.8-0.8c0.6-0.5,1.5-0.9,2.1-1c0.3,0,0.5,0,0.6-0.1l0-0.7c-0.1,0-0.3,0-0.7,0c-0.4,0-1,0.2-1.6,0.4
				c-0.6,0.3-1.2,0.7-1.7,1.3c-0.3,0.3-0.5,0.6-0.8,1c-0.1,0.2-0.2,0.5-0.1,0.8c0,0.3,0.1,0.4,0.1,0.6l0.5,2.3l0,0
				c0,0.2,0,0.2-0.3,0.5c-0.2,0.2-0.5,0.5-0.7,0.7c-0.4,0.5-0.9,0.9-1.3,1.3l0,0c-0.4,0.4-0.4,1,0,1.4l0.7,0.7
				c0.5,0.4,0.9,0.9,1.3,1.3c0.3,0.3,0.3,0.3,0.3,0.4l-0.3,0.9c-0.2,0.6-0.4,1.2-0.6,1.8c-0.1,0.3-0.2,0.6-0.3,0.9
				c-0.1,0.2-0.1,0.4-0.1,0.5c0,0.1,0,0.3,0.1,0.4c0.1,0.1,0.2,0.3,0.4,0.3c0.2,0.1,0.3,0,0.4-0.1l0.5-0.2c0.2,0,0.4-0.3,0.5-0.3
				c0.2-0.1,0.4-0.3,0.7-0.5c1.1-0.8,2.2-1.7,3.3-2.6c1.1-0.9,2.1-1.9,3-3c0.9-1.1,1.7-2.3,2.1-3.8c0.5-1.4,0.5-3-0.2-4.4
				c-0.3-0.6-1-1.7-2.9-2.5c-0.6-0.2-1.2-0.4-1.8-0.4c-0.2,0-0.4,0-0.6,0l0,0.7C-3108.2,1174.8-3108.1,1174.8-3108,1174.8z"/>
		</g>
	</g>
</g>
<g>
	<g>
		<g>
			<path fill="#505A78" d="M206.3,167.1c-0.1,0.3,0.1,1,0.5,1.6c0.2,0.4,0.5,0.8,0.8,1.1c0.3,0.3,0.5,0.6,0.7,0.7
				c1.3,1.3,2.7,2.1,4.3,2.9c1.7,0.8,3.6,1.1,5.4,1c0.4,0,1-0.1,1.5-0.3c0.3-0.1,0.5-0.1,0.8-0.2c0.2-0.1,0.5-0.2,0.7-0.3
				c0.1,0,0.3-0.1,0.4-0.2c0.2-0.1,0.4-0.2,0.6-0.4c0.2-0.1,0.4-0.3,0.6-0.4c0.2-0.2,0.4-0.3,0.5-0.5c0.3-0.3,0.5-0.5,0.7-0.7
				c0.8-1,0.3-1.7-0.7-0.5c-0.1,0.1-0.2,0.3-0.5,0.5c-0.2,0.1-0.4,0.3-0.6,0.5c-0.3,0.2-0.5,0.3-0.8,0.5c-0.5,0.3-1,0.4-1.1,0.5
				c-0.5,0.1-1,0.2-1.4,0.3c-0.5,0-0.9,0.1-1.4,0.1c-0.9,0-1.8-0.1-2.8-0.4c-1.9-0.6-3.8-1.5-5.3-2.9c-0.1-0.1-1.1-1-1.7-1.8
				C206.9,167.5,206.4,166.8,206.3,167.1z"/>
		</g>
	</g>
	<g>
		<g>
			<path fill="#505A78" d="M165.4,62.6c-0.3,0.1-0.8,0.5-1.3,1c-0.4,0.4-0.9,0.7-1.2,1.1c-0.4,0.3-0.8,0.5-1,0.7
				c-2,1.1-3.9,1.4-6.1,0.9c-2.2-0.5-4.3-1.6-6.1-2.9c-0.9-0.6-2.1-1.6-2.8-2.3c-0.2-0.2-0.6-0.6-1-1c-0.4-0.5-0.8-1-1.2-1.4
				c-0.2-0.3-0.4-0.6-0.5-0.7c-0.6-0.9-1.6-0.8-0.6,0.6c0.1,0.1,0.2,0.3,0.5,0.6c0.4,0.5,1,1.2,1.6,1.8c0.6,0.6,1.1,1.1,1.2,1.2
				c2.1,2,4,3.2,6.6,4.4c1.3,0.6,2.8,0.9,4.3,0.9c1.5,0,3-0.4,4.3-1c0.1,0,0.5-0.3,1.1-0.7c0.3-0.2,0.6-0.5,0.9-0.7
				c0.3-0.3,0.6-0.6,0.8-0.9C165.3,63.2,165.8,62.5,165.4,62.6z"/>
		</g>
	</g>
	<g>
		<g>
			<g>
				<g>
					<path fill="#505A78" d="M101.1,156.4c1.3,0.6,7.3,0.5,9,0.6c4.6,0.1,8.5,0,13,0.1c4.6,0.1,9.3,0.1,13.8,0.1
						c2.2,0,5.2-0.1,7.4-0.1c1.4,0,6.4-0.1,8.3-0.1c2.3,0,3.1-1-0.3-1c-1.9,0-8.8,0-9.5,0c-5.5-0.1-9.7,0.1-15.2-0.1
						c-5.4-0.2-11,0-16.5-0.1C110.8,155.8,99.9,155.8,101.1,156.4z"/>
				</g>
			</g>
		</g>
		<g>
			<g>
				<g>
					<path fill="#505A78" d="M101,139c1.1,0.6,6,0.5,7.4,0.6c3.8,0.1,6.9,0,10.7,0.1c3.7,0.1,7.6,0.1,11.3,0.1
						c1.8,0,4.3-0.1,6.1-0.1c1.2,0,5.2-0.1,6.8-0.1c1.9,0,2.6-1-0.2-1c-1.5,0-7.2,0-7.8,0c-4.5-0.1-8,0.1-12.5-0.1
						c-4.5-0.2-9,0-13.5-0.1C109,138.3,100.1,138.4,101,139z"/>
				</g>
			</g>
		</g>
		<g>
			<g>
				<g>
					<path fill="#505A78" d="M162.3,139c2.4,0.6,13.3,0.5,16.3,0.6c8.3,0.1,15.3,0,23.5,0.1c8.2,0.1,16.8,0.1,24.9,0.1
						c4,0,9.4-0.1,13.3-0.1c2.6,0,11.5-0.1,15-0.1c4.1,0,5.7-1-0.5-1c-3.4,0-15.9,0-17.2,0c-10-0.1-17.6,0.1-27.5-0.1
						c-9.8-0.2-19.9,0-29.7-0.1C179.8,138.3,160.2,138.4,162.3,139z"/>
				</g>
			</g>
		</g>
		<g>
			<g>
				<g>
					<path fill="#505A78" d="M101.2,121.5c3.8,0.6,21.6,0.5,26.6,0.6c13.6,0.1,24.9,0,38.4,0.1c13.4,0.1,27.4,0.1,40.6,0.1
						c6.5,0,15.3-0.1,21.8-0.1c4.2,0,18.8-0.1,24.5-0.1c6.7,0,9.2-1-0.7-1c-5.5,0-26,0-28.1,0c-16.3-0.1-28.7,0.1-44.8-0.1
						c-16-0.2-32.4,0-48.5-0.1C129.8,120.9,97.8,121,101.2,121.5z"/>
				</g>
			</g>
		</g>
		<g>
			<g>
				<g>
					<path fill="#505A78" d="M101,104.1c0.4,0.6,2.4,0.5,3,0.6c1.5,0.1,2.8,0,4.3,0.1c1.5,0.1,3.1,0.1,4.5,0.1
						c0.7,0,1.7-0.1,2.4-0.1c0.5,0,2.1-0.1,2.7-0.1c0.8,0,1-1-0.1-1c-0.6,0-2.9,0-3.1,0c-1.8-0.1-3.2,0.1-5-0.1
						c-1.8-0.2-3.6,0-5.4-0.1C104.2,103.5,100.6,103.5,101,104.1z"/>
				</g>
			</g>
		</g>
		<g>
			<g>
				<g>
					<path fill="#505A78" d="M125.9,104.1c0.3,0.6,2,0.5,2.4,0.6c1.2,0.1,2.3,0,3.5,0.1c1.2,0.1,2.5,0.1,3.7,0.1
						c0.6,0,1.4-0.1,2-0.1c0.4,0,1.7-0.1,2.2-0.1c0.6,0,0.8-1-0.1-1c-0.5,0-2.4,0-2.5,0c-1.5-0.1-2.6,0.1-4.1-0.1
						c-1.5-0.2-2.9,0-4.4-0.1C128.5,103.5,125.6,103.5,125.9,104.1z"/>
				</g>
			</g>
		</g>
		<g>
			<g>
				<g>
					<path fill="#505A78" d="M147.1,104.1c2.7,0.6,15.3,0.5,18.9,0.6c9.6,0.1,17.7,0,27.2,0.1c9.5,0.1,19.4,0.1,28.8,0.1
						c4.6,0,10.9-0.1,15.4-0.1c3,0,13.3-0.1,17.4-0.1c4.8,0,6.5-1-0.5-1c-3.9,0-18.4,0-19.9,0c-11.5-0.1-20.3,0.1-31.8-0.1
						c-11.4-0.2-23,0-34.4-0.1C167.4,103.5,144.6,103.5,147.1,104.1z"/>
				</g>
			</g>
		</g>
		<g>
			<g>
				<g>
					<path fill="#505A78" d="M101,86.7c0.4,0.6,2,0.5,2.4,0.6c1.2,0.1,2.3,0,3.5,0.1c1.2,0.1,2.5,0.1,3.7,0.1c0.6,0,1.4-0.1,2-0.1
						c0.4,0,1.7-0.1,2.2-0.1c0.6,0,0.8-1-0.1-1c-0.5,0-2.4,0-2.6,0c-1.5-0.1-2.6,0.1-4.1-0.1c-1.5-0.2-3,0-4.4-0.1
						C103.6,86.1,100.7,86.1,101,86.7z"/>
				</g>
			</g>
		</g>
		<g>
			<g>
				<g>
					<path fill="#505A78" d="M150.6,86.7c0.2,0.6,1,0.5,1.2,0.6c0.6,0.1,1.2,0,1.8,0.1c0.6,0.1,1.3,0.1,1.9,0.1c0.3,0,0.7-0.1,1-0.1
						c0.2,0,0.9-0.1,1.1-0.1c0.3,0,0.4-1,0-1c-0.3,0-1.2,0-1.3,0c-0.8-0.1-1.3,0.1-2.1-0.1c-0.7-0.2-1.5,0-2.3-0.1
						C151.9,86.1,150.4,86.1,150.6,86.7z"/>
				</g>
			</g>
		</g>
		<g>
			<g>
				<g>
					<path fill="#505A78" d="M217.7,86.7c1,0.6,5.7,0.5,7,0.6c3.6,0.1,6.5,0,10.1,0.1c3.5,0.1,7.2,0.1,10.6,0.1c1.7,0,4-0.1,5.7-0.1
						c1.1,0,4.9-0.1,6.4-0.1c1.8,0,2.4-1-0.2-1c-1.4,0-6.8,0-7.4,0c-4.3-0.1-7.5,0.1-11.7-0.1c-4.2-0.2-8.5,0-12.7-0.1
						C225.2,86.1,216.8,86.1,217.7,86.7z"/>
				</g>
			</g>
		</g>
	</g>
	<g opacity="0.1">
		<ellipse fill="#505A78" cx="237.2" cy="220.3" rx="18" ry="1.3"/>
		<g>
			<path fill="#505A78" d="M255.1,220.3c0,0,0,0-0.1,0.1c-0.3,0.1-0.7,0.2-1.1,0.3c-0.7,0.1-1.5,0.2-2.2,0.3
				c-1.4,0.1-2.6,0.2-3.3,0.2c-2.4,0.1-4.7,0.2-7,0.2c-2.3,0-4.6,0-6.9,0c-2.2,0-4.5,0-6.9-0.2c-1.8-0.1-3.6-0.3-5.5-0.5
				c-0.5-0.1-0.9-0.1-1.4-0.2c-0.2,0-0.4-0.1-0.7-0.1c-0.1,0-0.2-0.1-0.3-0.1l-0.2,0c0,0,0,0,0,0c0,0,0,0,0,0l0.2-0.1l0.3-0.1
				c0.4-0.1,0.9-0.2,1.3-0.2c1.8-0.2,3.7-0.4,5.5-0.5c1.9-0.1,3.6-0.1,5.4-0.2c1.8,0,3.9-0.1,6-0.1c2.1,0,4.2,0,5.9,0.1
				c1.2,0,3.9,0.1,6.6,0.4c1.4,0.1,3,0.2,4,0.6C255.1,220.3,255,220.4,255.1,220.3l0.3,0c0-0.2-0.1-0.3-0.3-0.4
				c-1.2-0.5-3.4-0.6-5.5-0.8c-3.5-0.2-7-0.3-7.6-0.3c-2.1-0.1-4.1-0.1-6.1,0c-2.1,0-4.1,0-6.1,0.1c-2,0.1-4,0.2-6.1,0.4
				c-1,0.1-2,0.2-3,0.3c-0.3,0-0.5,0.1-0.8,0.1c-0.1,0-0.3,0.1-0.4,0.1c-0.1,0-0.4,0.2-0.5,0.3c-0.1,0.1-0.1,0.2-0.1,0.2
				c0,0.1,0,0.2,0.1,0.2c0.1,0.1,0.4,0.3,0.5,0.3c0.3,0.1,0.5,0.1,0.8,0.2c2.2,0.4,4.4,0.5,6.6,0.6c2.2,0.1,4.4,0.2,6.6,0.2
				c2.2,0,4.4,0,6.6,0c2.2,0,4.4,0,6.6-0.1c1.1-0.1,2.7-0.1,5.6-0.5c0.9-0.1,1.8-0.2,2.8-0.6c0.1-0.1,0.2-0.1,0.3-0.4L255.1,220.3
				C255,220.3,255.1,220.3,255.1,220.3z"/>
		</g>
	</g>
	<g>
		<g>
			<g>
				<path fill="#B2D8F7" d="M238.5,200.4c0,0,5.3,19.9,7.5,19.9c2.1,0-1.1-19.6-1.1-19.6"/>
				<g>
					<path fill="#B2D8F7" d="M244.9,200.7c-0.1,0.2-0.1,0.7-0.1,1.3c0.2,1.8,0.5,3.9,0.6,4.7c0.4,3.8,0.9,7,0.9,10.8
						c0,0.5,0,0.9-0.1,1.4c0,0.2-0.1,0.4-0.1,0.6c0,0.1-0.1,0.2-0.1,0.3c0,0.1,0,0,0,0.1c0,0,0,0-0.2-0.1c-0.1-0.1-0.3-0.3-0.4-0.5
						c-0.2-0.4-0.5-0.8-0.7-1.2c-0.8-1.7-1.5-3.5-2.1-5.3c-0.6-1.7-1.4-4.1-1.9-5.8c-0.2-0.6-0.6-1.8-1-3.2c-0.3-1-0.6-2.1-0.8-2.7
						c-0.2-0.8-0.9-1-0.6,0.3c0.2,0.6,0.6,2.1,1,3.5c0.5,1.7,0.9,3.2,1,3.5c0.7,2.2,1.3,4.1,2,6.1c0.3,1,0.7,1.9,1.1,2.9
						c0.4,1,0.8,2,1.6,3c0.1,0.1,0.2,0.2,0.4,0.4c0.2,0.1,0.5,0.2,0.7,0.1c0.2-0.1,0.4-0.4,0.5-0.5c0.1-0.2,0.1-0.3,0.2-0.5
						c0.2-0.6,0.2-1.2,0.2-1.8c0-1.2,0-2.3-0.1-3.5c-0.2-2.3-0.4-4.6-0.7-6.9c0-0.2-0.4-3.3-0.9-5.6
						C245.2,201.1,245,200.5,244.9,200.7z"/>
				</g>
			</g>
			<g>
				<path fill="#B2D8F7" d="M232.9,200.4l-5.5-0.6c0,0,1.1,20.5,3.5,20.5C233.4,220.3,232.9,200.4,232.9,200.4z"/>
				<g>
					<path fill="#B2D8F7" d="M233,200.4c-0.2,0.2-0.2,0.7-0.3,1.2c0,2.1-0.1,4.5-0.1,5.5c-0.1,2.2-0.1,4.2-0.3,6.2
						c-0.1,1-0.2,2-0.3,3c-0.1,1-0.3,2.1-0.7,3c-0.1,0.2-0.2,0.4-0.3,0.5c-0.1,0.1-0.1,0.1-0.2,0c-0.3-0.3-0.5-0.8-0.6-1.3
						c-0.3-1-0.5-2.1-0.7-3.2c-0.4-2.2-0.6-4.4-0.9-6.5c-0.2-2.1-0.5-4.9-0.7-7c0-0.3-0.1-0.9-0.1-1.5c0,0,0-0.1,0-0.1l0.2,0
						c0.4,0,0.8,0.1,1.2,0.1c1.2,0.1,2.4,0.2,3.1,0.3c0.8,0.1,1.2-0.5,0-0.6c-0.7-0.1-2.4-0.3-4-0.4l-0.5-0.1l-0.3,0
						c-0.1,0-0.2-0.1-0.2,0.1c0,0.4,0,0.7,0.1,1c0,0.5,0.1,0.9,0.1,1.3c0.1,0.7,0.1,1.3,0.1,1.5c0.2,2.6,0.4,5,0.7,7.3
						c0.3,2.3,0.6,4.6,1.2,7.2c0.2,0.6,0.3,1.3,0.6,1.9c0.2,0.3,0.3,0.7,0.8,1c0.1,0,0.3,0.1,0.5,0.1c0.2,0,0.3-0.1,0.4-0.2
						c0.2-0.2,0.3-0.3,0.5-0.5c0.4-0.7,0.5-1.3,0.7-2c0.1-0.7,0.2-1.3,0.3-2c0.3-2.6,0.4-5.3,0.5-7.9c0-0.2,0.1-3.8-0.1-6.5
						C233.2,200.9,233.1,200.2,233,200.4z"/>
				</g>
			</g>
		</g>
		<g>
			<path fill="#FFFFFF" d="M241.8,162.4c-0.3-0.2-0.6-0.6-0.6-1c0-5,2.2-13.5-2.8-15.4c-6.4-2.4-10.7,9.8-9.8,17.7
				c0,0.4-0.1,0.8-0.4,1.1c-12.1,10-7.9,33-6.3,34.3c1.6,1.3,26.5,2.2,27.4,1.2C249.9,199.6,253.7,169.9,241.8,162.4z"/>
		</g>
		<g>
			<g>
				<path fill="#EDEEF1" d="M225.6,167.4c-8.9,10.9-5.2,30.5-3.7,31.7c0.3,0.3,1.6,0.5,3.5,0.7C224.1,190.7,225.3,171.1,225.6,167.4
					z"/>
			</g>
			<g>
				<path fill="#EDEEF1" d="M243.1,163.4c-2.3,1.3-5.3,2.8-8.2,3.2c-0.2,4.6-1.3,27.2,0.8,34c6.6,0.3,13.2,0.3,13.6-0.2
					C249.9,199.6,253.4,172.1,243.1,163.4z"/>
			</g>
		</g>
		<g>
			<g>
				<g>
					<path fill="#505A78" d="M228.4,165.6c0,0.1,0,0.3,0.2,0.5c0.2,0.2,0.4,0.4,0.6,0.5c0.5,0.3,1.1,0.4,1.3,0.4
						c1.3,0.2,2.4,0.1,3.7,0c1.3-0.1,2.6-0.4,3.8-0.9c0.6-0.2,1.4-0.6,1.9-0.9c0.4-0.2,1.6-0.9,2-1.2c0.5-0.4,0.3-1-0.4-0.5
						c-0.4,0.3-2.1,1.2-2.3,1.2c-1.4,0.6-2.4,1-3.9,1.3c-1.5,0.2-3,0.5-4.4,0.2c0,0-0.8-0.1-1.4-0.3
						C228.9,165.8,228.5,165.4,228.4,165.6z"/>
				</g>
			</g>
		</g>
		<g>
			<path fill="#B2D8F7" d="M237.6,148.5c-3.2,2.3-6,1.9-7.8-1.6c-2.1-4.1,7.3-5.5,10.2-1.2c4.2-1.4,4.6,6.5,2.2,7.1
				C239.8,153.5,239,147.5,237.6,148.5z"/>
			<g>
				<path fill="#B2D8F7" d="M237.8,148.6c0,0,0.1,0,0.1,0c0.1,0,0.2,0.2,0.3,0.3c0.2,0.3,0.4,0.7,0.6,1c0.3,0.7,0.6,1.3,0.8,1.6
					c0.4,0.6,0.7,1.2,1.4,1.5c0.3,0.2,0.8,0.2,1.1,0.1c0.4-0.1,0.7-0.3,1-0.6c0.5-0.6,0.7-1.3,0.8-1.9c0.1-0.7,0.1-1.3,0-2
					c-0.1-0.6-0.3-1.3-0.6-1.9c-0.3-0.6-0.9-1.2-1.6-1.4c-0.3-0.1-0.6-0.2-0.8-0.2c-0.1,0-0.3,0-0.4,0l-0.3,0c-0.2,0,0,0.1-0.2-0.2
					c-0.2-0.2-0.4-0.4-0.6-0.6c-0.8-0.7-1.9-1.1-2.9-1.4c-1-0.3-2.1-0.3-3.1-0.3c-1,0.1-2,0.3-3,0.8c-0.4,0.3-0.9,0.7-1.2,1.3
					c-0.3,0.6-0.2,1.4,0.1,1.9c0.5,1.1,1.3,2,2.1,2.6c0.3,0.2,0.8,0.5,1.5,0.6c0.7,0.2,1.5,0.1,2.3-0.1c0.8-0.2,1.6-0.7,2.1-1.1
					C237.5,148.9,237.6,148.8,237.8,148.6l-0.4-0.3c-0.1,0-0.2,0.1-0.4,0.3c-0.5,0.3-1.6,1-2.7,1.1c-0.9,0.2-1.8-0.1-2.4-0.5
					c-0.6-0.4-0.9-0.8-1-0.9c-0.7-0.9-1.4-1.9-1.1-2.7c0.1-0.5,0.4-0.9,0.9-1.1c0.4-0.3,0.9-0.5,1.4-0.6c1-0.3,2.1-0.4,3.2-0.2
					c1,0.1,2,0.5,3,1.1c0.5,0.3,0.9,0.7,1.3,1.1c0,0,0.3,0.4,0.4,0.5c0.2-0.1,0.5-0.2,0.6-0.2c0.3-0.1,0.5-0.1,0.8,0
					c1,0.2,1.6,1.3,1.8,2.3c0.2,1.1,0.3,2.3-0.1,3.3c-0.2,0.5-0.6,0.9-1,0.9c-0.4,0-0.8-0.2-1.2-0.6c-0.3-0.4-0.8-1.1-1.6-2.5
					c-0.1-0.2-0.3-0.4-0.4-0.7c-0.2-0.2-0.4-0.5-0.8-0.6c-0.2,0-0.5,0.1-0.6,0.2L237.8,148.6C237.8,148.7,237.8,148.6,237.8,148.6z"
					/>
			</g>
		</g>
		<g>
			<g>
				<path fill="#505A78" d="M219.8,189.4c0.2-0.3,0.3-0.9,0.3-1.6c0-3.3,0.3-6.8,1-9.9c0.7-3,1.8-5.5,2.5-6.8
					c0.4-0.8,0.9-1.5,1.3-2.2c0.5-0.7,1-1.4,1.6-1.9c0.5-0.6,1.2-1.2,1.8-1.7c0.1-0.1,0.4-0.3,0.5-0.6c0.1-0.2,0.2-0.5,0.2-0.8
					c0-0.5-0.1-0.8-0.1-1.2c-0.1-3.2,0.4-6.4,1.4-9.4c0.5-1.5,1.2-2.9,2.1-4.2c0.9-1.3,2.1-2.4,3.5-2.7c1.4-0.3,3.1,0.2,4,1.4
					c1,1.2,1.2,2.9,1.3,4.5c0.1,1.7-0.1,3.4-0.2,5.1c-0.1,0.9-0.2,1.7-0.2,2.6c0,0.4,0,0.9-0.1,1.3c-0.1,0.6,0.3,1.3,0.8,1.6
					c2.8,1.8,4.7,4.9,5.8,8.2c1.2,3.2,1.8,6.7,2.1,10.1c0.3,3.4,0.4,6.9,0.3,10.3c-0.1,1.7-0.2,3.5-0.4,5.3
					c-0.1,0.9-0.2,1.9-0.4,2.8c0,0.1-0.1,0.3-0.1,0.3c0,0,0,0,0,0c0.1,0-0.2,0.1-0.4,0.1c-0.5,0.1-0.9,0.1-1.4,0.1
					c-3.9,0.2-7.9,0.1-11.2,0c-2.2-0.1-7-0.2-12-0.9c-0.3,0-0.6-0.1-0.9-0.2c-0.3-0.1-0.6-0.2-0.7-0.2c-0.1,0-0.3-0.4-0.4-0.6
					c-0.1-0.3-0.2-0.6-0.3-0.8c-0.4-1.2-0.6-2.3-0.8-3.5c0-0.2-0.1-0.5-0.1-0.7c0-0.2,0-0.3-0.1-0.4c-0.1-1.1-1-1.5-0.8,0.2
					c0,0.1,0,0.3,0.1,0.5c0,0.1,0,0.2,0,0.3c0,0.3,0.1,0.5,0.1,0.8c0.1,0.3,0.1,0.7,0.2,1c0.1,0.7,0.3,1.4,0.5,2.2
					c0.1,0.4,0.2,0.7,0.4,1.1c0.1,0.2,0.2,0.4,0.5,0.6c0.3,0.2,0.5,0.2,0.7,0.3c1.6,0.4,3.2,0.5,4.7,0.7c6.3,0.6,12.1,0.7,13.2,0.7
					c2.1,0.1,4.1,0.1,6.1,0c0.5,0,1,0,1.5-0.1c0.3,0,0.5,0,0.8-0.1c0.1,0,0.3,0,0.4-0.1c0.1,0,0.2,0,0.3-0.1l0.3-0.2
					c0.1-0.1,0.2-0.4,0.3-0.5c0-0.1,0.1-0.3,0.1-0.4c0.1-0.2,0.1-0.5,0.1-0.7c0.1-0.5,0.1-1,0.2-1.4c0.4-3.8,0.6-7.5,0.5-11.2
					c-0.1-3.7-0.4-7.4-1.2-11.2c-0.4-1.9-0.9-3.8-1.7-5.6c-0.8-1.9-1.8-3.7-3.2-5.3c-0.7-0.8-1.5-1.5-2.4-2.1
					c-0.1-0.1-0.2-0.1-0.2-0.2c-0.1-0.1-0.1-0.1-0.1-0.2c0-0.1-0.1-0.1-0.1-0.2c0,0,0-0.1,0-0.1l0-0.2c0-0.5,0-1,0.1-1.5
					c0.1-2.1,0.4-4.1,0.4-6.3c0-1.1,0-2.1-0.2-3.2c-0.2-1.1-0.6-2.2-1.3-3.1c-0.7-0.9-1.8-1.6-3-1.8c-0.6-0.1-1.2-0.1-1.8,0
					c-0.6,0.1-1.2,0.3-1.7,0.6c-2,1.2-3.2,3.1-4.2,5c-0.9,2-1.5,4-1.9,6.1c-0.4,2.1-0.5,4.2-0.3,6.4l0,0.4c0,0.1,0,0.2,0,0.2
					c0,0.1-0.1,0.3-0.2,0.4l-1.1,1c-0.8,0.8-1.5,1.5-2.1,2.4c-0.2,0.3-2.1,2.8-3.4,6.6c-1.3,3.9-2,8.9-1.8,13.4
					C219.4,188.8,219.6,189.7,219.8,189.4z"/>
			</g>
		</g>
		<g>
			<g>
				<g>
					<path fill="#505A78" d="M234.1,156.4c-0.4,0.1-0.6,0.8-0.7,1c-0.3,0.5-0.5,1-1,1.3c-0.5,0.3-0.8,0.2-1.1-0.2
						c-0.1-0.2-0.2-0.5-0.3-0.8c0-0.2,0-0.8,0-1c0.1-0.3-0.4-0.6-0.5-0.1c0,0.1-0.1,0.4-0.1,0.7c0,0.3,0,0.6,0,0.6
						c0,0.4,0.2,0.8,0.4,1.1c0.2,0.3,0.7,0.5,1.2,0.5c0.5-0.1,0.8-0.4,1.1-0.7c0.3-0.3,0.4-0.7,0.6-1
						C233.9,157.8,234.4,156.3,234.1,156.4z"/>
				</g>
			</g>
		</g>
		<g>
			<g>
				<path fill="#505A78" d="M244.8,201.5c-0.2,0.3-0.2,0.9-0.1,1.7c0.2,1.7,0.5,3.6,0.6,4.3c0.4,3.5,0.9,6.4,0.9,9.9
					c0,0.4,0,0.9-0.1,1.3c0,0.2,0,0.4-0.1,0.6c0,0.2-0.1,0.4-0.1,0.3c0,0,0,0,0,0l-0.1-0.1c-0.2-0.3-0.4-0.7-0.6-1
					c-0.8-1.5-1.4-3.2-2-4.8c-0.6-1.6-1.3-3.7-1.8-5.3c-0.3-0.8-1-3.2-1.5-4.7c-0.1-0.4-0.2-0.7-0.3-0.9c-0.3-1.1-1.2-1.3-0.8,0.3
					c0,0.1,0.1,0.4,0.2,0.8c0.5,1.8,1.6,5.4,1.7,5.9c0.6,2,1.2,3.8,1.9,5.6c0.3,0.9,0.7,1.7,1.1,2.6c0.2,0.4,0.4,0.9,0.7,1.4
					c0.1,0.2,0.3,0.5,0.4,0.7c0.1,0.1,0.2,0.2,0.3,0.4c0,0.1,0.1,0.1,0.2,0.2c0.1,0.1,0.2,0.1,0.3,0.2c0.1,0.1,0.2,0.1,0.3,0.1
					c0.1,0,0.2,0,0.3,0c0.2-0.1,0.4-0.2,0.6-0.4c0.3-0.5,0.3-0.8,0.4-1c0.1-0.6,0.1-1.1,0.1-1.7c0-1.1-0.1-2.2-0.1-3.2
					c-0.2-2.1-0.5-4.2-0.7-6.3c0-0.2-0.4-3-0.9-5.2C245.2,202,244.9,201.2,244.8,201.5z"/>
			</g>
		</g>
		<g>
			<g>
				<path fill="#505A78" d="M233,201.5c-0.2,0.3-0.3,0.9-0.4,1.6c-0.1,1.7-0.1,3.6-0.1,4.4c-0.1,3.5-0.1,6.5-0.7,9.8
					c-0.2,0.8-0.4,1.7-0.7,2.3l-0.1,0.1c0,0,0,0,0,0c0,0,0,0,0,0c0,0,0,0.1-0.1-0.1c-0.2-0.2-0.4-0.6-0.5-1c-0.5-1.6-0.8-3.3-1.1-5
					c-0.3-1.6-0.6-3.9-0.8-5.6c-0.1-0.8-0.4-3.3-0.5-4.9c0-0.4-0.1-0.7-0.1-0.9c-0.1-1.1-0.9-1.5-0.8,0.2c0,0.2,0,0.4,0.1,0.8
					c0.1,1.9,0.5,5.6,0.5,6.1c0.2,2.1,0.5,4,0.8,5.8c0.2,0.9,0.4,1.8,0.6,2.8c0.1,0.5,0.3,1,0.4,1.4c0.1,0.2,0.2,0.5,0.4,0.8
					c0.1,0.1,0.2,0.3,0.3,0.4c0.1,0.1,0.3,0.3,0.6,0.4c0.2,0.1,0.5,0,0.7,0c0.2-0.1,0.4-0.3,0.5-0.4c0.2-0.3,0.3-0.6,0.4-0.8
					c0.2-0.5,0.3-1.1,0.4-1.6c0.2-1.1,0.3-2.1,0.4-3.2c0.2-2.1,0.2-4.2,0.3-6.3c0-0.2,0-3-0.1-5.2
					C233.3,202.1,233.2,201.3,233,201.5z"/>
			</g>
		</g>
		<g>
			<g>
				<g>
					<path fill="#505A78" d="M235.5,199.2c0.3-0.4,0-1.5,0-1.9c-0.1-0.9-0.2-1.7-0.3-2.6c0-0.9-0.1-1.9-0.1-2.8c0-0.4-0.1-1-0.2-1.5
						c0-0.3-0.1-1.3-0.1-1.7c0-0.5-0.7-0.6-0.7,0.1c0,0.4,0.1,1.8,0.1,1.9c0,1.1,0.2,2,0.1,3.1c0,1.1,0.2,2.2,0.3,3.4
						c0,0,0.1,0.6,0.3,1.1C235.1,198.9,235.3,199.3,235.5,199.2z"/>
				</g>
			</g>
		</g>
		<g>
			<g>
				<g>
					<path fill="#505A78" d="M234.4,185.4c0.4-0.4,0.4-2.4,0.4-3c0.1-1.5,0-2.8,0.2-4.3c0.1-1.5,0.2-3.1,0.2-4.6c0-0.7,0-1.7,0-2.5
						c0-0.5,0-2.1,0.1-2.8c0-0.8-0.6-1.1-0.7,0c0,0.6-0.2,2.9-0.2,3.2c-0.1,1.8-0.1,3.2-0.2,5.1c-0.2,1.8-0.1,3.7-0.2,5.5
						C233.9,182.1,234,185.8,234.4,185.4z"/>
				</g>
			</g>
		</g>
		<g>
			<g>
				<g>
					<path fill="#505A78" d="M225.3,198.4c0.4-0.2,0.2-0.9,0.2-1.1c0-0.5-0.1-1-0.1-1.5c0-0.5,0-1.1,0-1.6c0-0.3-0.1-0.6-0.1-0.9
						c0-0.2-0.1-0.8-0.1-1c0-0.3-0.7-0.4-0.7,0.1c0,0.2,0,1.1,0,1.1c0,0.7,0.1,1.2,0.1,1.8c-0.1,0.7,0.1,1.3,0.1,2
						C224.7,197.3,224.9,198.6,225.3,198.4z"/>
				</g>
			</g>
		</g>
		<g>
			<g>
				<g>
					<path fill="#505A78" d="M224.7,189.6c0.4-0.5,0.3-2.9,0.4-3.6c0.1-1.8,0.1-3.4,0.2-5.2c0.1-1.8,0.2-3.7,0.3-5.5
						c0-0.9,0.1-2.1,0.1-2.9c0-0.6,0.1-2.5,0.1-3.3c0.1-0.9-0.6-1.3-0.7,0.1c-0.1,0.7-0.2,3.5-0.3,3.8c-0.2,2.2-0.1,3.9-0.4,6
						c-0.2,2.2-0.2,4.4-0.2,6.6C224.3,185.7,224.3,190.1,224.7,189.6z"/>
				</g>
			</g>
		</g>
		<g>
			<g>
				<path fill="#505A78" d="M213.1,189.2c0.2,0.3,0.8,0.6,1.5,0.8c1.5,0.5,3.4,0.8,4.2,0.9c3.4,0.4,6.4,0.3,9.8-0.6
					c1.7-0.4,3.3-1.1,4.9-2c1.5-0.9,2.9-2.1,4-3.4c1.1-1.3,2.3-3.2,3-4.7c0.4-0.8,1.3-3.1,1.4-4.7c0.1-0.4,0.1-0.7,0.1-0.9
					c0-1.2-0.8-1.5-0.8,0.1c0,0.1,0,0.4-0.1,0.8c-0.1,0.9-0.5,2.1-0.9,3.2c-0.4,1.1-0.9,1.9-1,2.1c-1,1.7-2.1,3.1-3.3,4.4
					c-1.2,1.3-2.7,2.3-4.5,3.1c-3.6,1.6-7.7,2.2-11.6,1.8c-0.2,0-2.8-0.3-4.9-0.8C213.8,189.1,212.9,189,213.1,189.2z"/>
			</g>
		</g>
		<g opacity="0.1">
			<path fill="#505A78" d="M227.5,200l0,1.6c1.7,0.2,3.4,0.3,5.4,0.4v-1.6C230.9,200.3,229.2,200.2,227.5,200z"/>
			<g>
				<path fill="#505A78" d="M227.6,200.2c0.1,0,0.1,0,0.2,0c0.5,0.1,1,0.1,1.2,0.1c0.5,0,0.9,0.1,1.3,0.1c0.4,0,0.9,0.1,1.3,0.1
					c0.2,0,0.4,0,0.6,0l0.3,0c0.1,0,0.1,0,0.1,0c0,0,0,0.1,0,0.1l0,0.2c0,0.2,0,0.3,0,0.5l0,0.3c0,0.1,0,0,0,0.1c0,0,0,0,0,0
					c0,0,0,0-0.1,0c-0.3,0-0.7,0-1-0.1c-0.3,0-0.7-0.1-1-0.1c-0.3,0-0.7,0-1.1,0c-0.4,0-0.8,0-1.1-0.1c-0.1,0-0.3,0-0.4,0
					c-0.1,0,0-0.1-0.1-0.4c0-0.3,0-0.6,0-0.8c0-0.1,0-0.2,0-0.3l-0.3,0c0,0.1,0,0.1,0,0.3c0,0.2,0,0.6,0,1l0,0.4
					c0,0.1,0,0.1,0.1,0.1l0.2,0c0.2,0,0.3,0,0.5,0c0.3,0,0.5,0,0.5,0c0.4,0,0.8,0.1,1.1,0.1c0.4,0,0.8,0.1,1.1,0.1
					c0.4,0,0.8,0,1.1,0.1c0.2,0,0.4,0,0.6,0.1c0.2,0,0.3,0,0.5,0.1c0-0.1,0-0.3,0-0.5c0-0.3,0-0.4,0-0.6l0-0.8l0-0.1l0-0.1
					c0,0,0,0-0.1,0l-0.3,0l-0.4,0l-0.6-0.1c-0.4,0-0.8,0-1.2,0c-0.4,0-0.8-0.1-1.2-0.2c-0.2,0-0.5,0-1.1,0c-0.2,0-0.3,0-0.5,0
					l-0.3,0l0,0.3C227.5,200.2,227.6,200.2,227.6,200.2z"/>
			</g>
		</g>
		<g opacity="0.1">
			<path fill="#505A78" d="M238.5,200.7l0.4,1.6c2.4,0.1,4.2,0.1,6,0.1l-0.3-1.6C242.7,200.7,241,200.8,238.5,200.7z"/>
			<g>
				<path fill="#505A78" d="M238.7,200.9c0.1,0,0.1,0,0.2,0c0.6,0,1.1,0,1.4,0.1c0.5,0,1,0,1.4,0c0.5,0,0.9,0,1.4,0
					c0.2,0,0.5,0,0.7,0l0.4,0l0.2,0l0.1,0c0,0,0,0,0,0l0,0l0,0.1c0,0.2,0,0.4,0.1,0.6l0.1,0.3c0,0.1,0,0.1,0,0.1l0,0c0,0,0,0-0.1,0
					c-0.4,0-0.8,0-1.1,0c-0.4,0-0.7,0-1.1,0c-0.4,0-0.8,0-1.2,0c-0.4,0-0.8,0-1.2,0c-0.1,0-0.3,0-0.6,0c-0.3,0-0.1,0.1-0.3-0.3
					c-0.1-0.3-0.2-0.6-0.2-0.8c0-0.1-0.1-0.2-0.1-0.3l-0.3,0.1c0,0.1,0,0.1,0.1,0.3c0.1,0.2,0.2,0.7,0.3,1.1
					c-0.1,0.4,0.5,0.2,0.6,0.3c0.2,0,0.3,0,0.5,0c0.3,0,0.5,0,0.6,0c0.4,0,0.8,0,1.2,0c0.4,0,0.8,0,1.2,0c0.4,0,0.8,0,1.2,0
					c0.2,0,0.4,0,0.7,0l0.3,0l0.1,0l0.1,0c0,0,0,0,0-0.1c0-0.2-0.1-0.4-0.1-0.6c0-0.2-0.1-0.4-0.1-0.7l-0.1-0.3l0-0.3l0-0.2l0-0.1
					c0,0,0,0-0.1,0l-1.5,0c-0.4,0-0.9,0-1.3,0.1c-0.4,0-0.9-0.1-1.3-0.1c-0.2,0-0.5,0-1.1,0c-0.2,0-0.4,0-0.6,0l-0.3,0l0,0.3
					C238.6,200.9,238.6,200.9,238.7,200.9z"/>
			</g>
		</g>
	</g>
	<g>
		<g>
			<g>
				<path fill="#505A78" d="M105.6,85.4c0.3,0.2,0.9,0.3,1.7,0.2c0.8-0.1,1.5-0.5,2.1-0.9c0.6-0.4,1-0.9,1.2-1.2c1-1.3,1.6-2.7,2-4
					c0.4-1.4,0.7-2.8,1.1-4.2c0.7-3,1.2-6.1,2.3-8.8c0.5-1.3,1.4-3,2.4-4c0.2-0.3,0.7-0.8,1.3-1.2c0.3-0.2,0.7-0.4,1-0.6
					c0.2-0.1,0.3-0.2,0.5-0.3c0.2-0.1,0.3-0.1,0.5-0.2c0.4-0.1,0.6-0.2,0.8-0.3c1-0.2,1.4-1.1-0.3-0.8c-0.2,0-0.4,0.1-0.8,0.2
					c-0.8,0.2-2,0.8-2.9,1.5c-0.2,0.2-0.4,0.4-0.6,0.5c-0.2,0.2-0.3,0.4-0.5,0.5c-0.3,0.3-0.5,0.5-0.5,0.6c-1.2,1.5-1.9,3.1-2.4,4.6
					c-0.5,1.6-0.9,3.2-1.3,4.9c-0.4,1.8-0.8,3.6-1.2,5.3c-0.4,1.7-0.9,3.5-1.9,4.9c0,0.1-0.4,0.6-0.9,1.1c-0.6,0.6-1.4,1.1-2.3,1.3
					c-0.5,0.2-0.9,0.2-1.2,0.3C105.6,85.3,105.4,85.4,105.6,85.4z"/>
			</g>
		</g>
		<g>
			<g>
				<g>
					<g>
						<path fill="#7FDE95" d="M120.8,43.2c0.2,0.6,0.7,1,1.1,1.6c0.9,1.3,0.7,1.4,1.1,2.6c0.3,0.9,1.1,1.8,2.1,2.2
							c1.4,0.6,3,0.6,4.4,0.3c3-0.7,5.1-2.1,8.5-1.7c0.3,0,0.5,0,0.7-0.1c3.7,0,2.3-3.6,3.1-5.7c0.6-1.5,1.5-2.1,1.2-3.7
							c-0.2-1.1-0.5-2.2-0.7-3.3c0-0.4,0.1-0.7,0-1.1c-0.4-1.5-1.6-1.7-2.8-2.7c-1.2-1-1.9-2.2-3.5-2.6c-0.7-0.2-1.2-0.1-1.9-0.1
							c-1.2-0.1-2.7-0.5-3.9-0.4c-1.1,0.1-2,0.4-2.8,1.1c-0.5,0.5-0.4,0.9-1,1.4c-0.5,0.4-1.1,0.5-1.6,1c-0.9,0.9-1.8,2.2-2.6,3.3
							c-0.9,1.3-0.7,2.1-0.8,3.6C121.4,40.2,120.2,41.6,120.8,43.2z"/>
					</g>
					<g>
						<g>
							<path fill="#7FDE95" d="M121,42.9c0-0.1,0-0.2,0-0.3c0-0.3,0-0.7,0.1-1c0.2-0.7,0.5-1.3,0.7-2c0.2-0.7,0.2-1.4,0.2-1.9
								c0-0.5,0.1-0.9,0.2-1.2c0.1-0.5,0.4-0.9,0.8-1.4c0.3-0.5,0.7-0.9,1-1.4c0.3-0.4,0.7-0.9,1-1.2l0.3-0.3
								c0.1-0.1,0.2-0.1,0.3-0.2c0.2-0.1,0.4-0.2,0.7-0.4c0.3-0.1,0.6-0.3,0.8-0.6c0.3-0.3,0.4-0.6,0.5-0.8c0.2-0.4,0.6-0.7,1-0.9
								c0.9-0.5,1.9-0.5,3-0.4c1,0.1,2.2,0.3,3.3,0.3c1.1-0.1,2,0.3,2.8,1.1c0.6,0.6,1.2,1.3,2,1.9c0.8,0.6,1.5,1,1.9,1.6
								c0.1,0.1,0.2,0.3,0.2,0.5c0,0.1,0,0.1,0.1,0.2c0,0.1,0,0.1,0,0.2c0,0.2-0.1,0.5,0,0.8c0,0.2,0.1,0.5,0.1,0.7
								c0.2,0.9,0.5,1.8,0.6,2.6c0.2,0.8-0.1,1.4-0.5,2.2c-0.2,0.4-0.4,0.8-0.6,1.3c-0.2,0.5-0.2,1-0.3,1.4
								c-0.1,0.9-0.1,1.8-0.3,2.5c-0.2,0.8-0.6,1.2-1.4,1.3c-0.1,0-0.2,0-0.3,0.1c-0.1,0-0.1,0-0.2,0c-0.1,0-0.3,0-0.4,0.1
								c-0.1,0-0.2,0.1-0.3,0.1c-0.2,0-0.4,0-0.6,0c-0.4,0-0.9,0-1.3,0c-0.9,0.1-1.8,0.3-2.6,0.5c-2,0.6-3.8,1.3-5.5,1.5
								c-0.5,0-1.5,0.1-2.5-0.2c-1-0.3-2-1.1-2.4-2.3c-0.1-0.3-0.2-0.6-0.3-1c-0.1-0.4-0.3-0.8-0.5-1.1c-0.4-0.6-0.9-1.1-1.2-1.5
								c-0.2-0.2-0.2-0.3-0.3-0.5l-0.6,0.2c0,0.1,0.1,0.3,0.3,0.6c0.4,0.5,0.9,1.1,1.3,1.9c0.2,0.4,0.3,0.8,0.4,1.4
								c0.1,0.5,0.4,1.1,0.7,1.5c0.6,0.7,1.4,1.2,2.2,1.5c0.8,0.3,1.6,0.3,2.3,0.3c1.4-0.1,2.4-0.4,2.7-0.5c2-0.6,3.8-1.3,5.6-1.5
								c0.4,0,0.8,0,1.2,0c0.2,0,0.4,0,0.6,0.1c0.3,0,0.6,0,0.8-0.1c0,0,0.1,0,0.1,0l0.2,0c0.2,0,0.3,0,0.5-0.1
								c0.2,0,0.3-0.1,0.5-0.1l0.5-0.2c0.6-0.3,1-1,1.2-1.6c0.3-1,0.2-2,0.3-3c0.1-0.9,0.5-1.7,1-2.6c0.2-0.4,0.4-1,0.5-1.5
								c0-0.6-0.1-1.1-0.2-1.5c-0.1-0.5-0.2-1-0.3-1.5c0-0.2-0.1-0.5-0.1-0.7c0-0.2-0.1-0.5,0-0.7c0-0.2,0.1-0.5,0-0.9
								c-0.1-0.3-0.2-0.6-0.4-0.9c-0.3-0.6-0.9-1-1.3-1.2c-0.5-0.3-0.9-0.6-1.3-0.9c-0.4-0.3-0.8-0.7-1.1-1.1
								c-0.7-0.8-1.8-1.5-3-1.7c-0.6-0.1-1.2,0-1.6-0.1c-0.5,0-1-0.1-1.6-0.2c-1-0.2-2.2-0.3-3.4,0c-0.6,0.1-1.1,0.4-1.6,0.8
								c-0.2,0.2-0.5,0.4-0.7,0.6c-0.2,0.3-0.3,0.6-0.4,0.8c-0.2,0.4-0.5,0.6-1,0.8c-0.2,0.1-0.5,0.2-0.8,0.5
								c-0.3,0.2-0.4,0.4-0.6,0.6c-0.8,0.8-1.4,1.7-2,2.5c-0.3,0.4-0.8,1.1-1,2.1c-0.1,0.5-0.1,1-0.1,1.6c0,0.6-0.1,1.1-0.3,1.7
								c-0.2,0.8-0.7,1.8-0.5,2.8c0.1,0.2,0.1,0.4,0.2,0.6l0.6-0.2L121,42.9z"/>
						</g>
					</g>
				</g>
				<g>
					<g>
						<g>
							<g>
								<path fill="#505A78" d="M124.9,42.7c-0.2-0.3-0.2-0.2-0.3-0.3c-0.1-0.1-0.2-0.2-0.2-0.3c0-0.2,0-0.3,0-0.4
									c0-0.1,0-0.1,0-0.2c0,0,0.1-0.2,0.1-0.2c0,0-0.1-0.5-0.3-0.4c-0.1,0-0.4,0.3-0.4,0.4c-0.2,0.3-0.1,0.5-0.2,0.8
									c0,0.3,0.1,0.6,0.4,0.9c0,0,0.2,0.1,0.4,0.1C124.9,42.9,125,42.8,124.9,42.7z"/>
							</g>
						</g>
					</g>
				</g>
				<g>
					<g>
						<g>
							<g>
								<path fill="#505A78" d="M133.9,34.6c0.1-0.3,0.1-0.3,0.1-0.3c0,0,0-0.1,0.2-0.2c0.1,0,0.2-0.1,0.3-0.1c0,0,0.1-0.1,0.1-0.1
									c0,0,0.1,0,0.2,0c0,0,0.4-0.4,0.2-0.4c-0.1-0.1-0.4-0.1-0.4-0.1c-0.3,0-0.4,0.2-0.6,0.2c-0.3,0.1-0.4,0.3-0.4,0.7
									c0,0,0,0.2,0.1,0.4C133.7,34.8,133.8,34.8,133.9,34.6z"/>
							</g>
						</g>
					</g>
				</g>
				<g>
					<g>
						<g>
							<g>
								<path fill="#505A78" d="M139.1,38.7c0.3,0.2,0.3,0.1,0.4,0.1c0.1,0.1,0.2,0.1,0.3,0.2c0,0.1,0.1,0.3,0.1,0.4
									c0,0.1,0,0.1,0.1,0.2c0,0,0,0.2-0.1,0.2c0,0,0.3,0.5,0.4,0.3c0.1-0.1,0.2-0.5,0.2-0.5c0.1-0.3-0.1-0.5-0.1-0.8
									c-0.1-0.3-0.4-0.5-0.7-0.6c0,0-0.2,0-0.4,0.1C139.1,38.4,139,38.6,139.1,38.7z"/>
							</g>
						</g>
					</g>
				</g>
				<g>
					<g>
						<g>
							<path fill="#505A78" d="M127.3,34c0.2-0.1,0.2-0.3,0.2-0.4c0-0.2,0.1-0.3,0.1-0.3c0.1-0.1,0.3-0.2,0.5-0.2c0.1,0,0.2,0,0.3,0
								c0.1,0,0.2,0,0.4,0c0.2,0,0.3-0.2,0.4-0.3c0.1-0.1,0.2-0.4,0.2-0.5c0-0.2,0.1-0.4,0.2-0.5c0.1-0.1,0.2-0.2,0.3-0.3
								c0.1,0,0.5,0,0.7,0.1c0.2,0.1,0.5-0.3,0.2-0.5c-0.1,0-0.3-0.1-0.6-0.2c-0.2-0.1-0.5,0-0.5,0c-0.4,0.1-0.7,0.4-0.7,0.7
								c-0.1,0.1-0.1,0.3-0.1,0.4c0,0.1-0.1,0.3-0.1,0.3c0,0.2-0.8,0.1-1.4,0.5c0,0-0.1,0.1-0.2,0.2c-0.1,0.2-0.1,0.4-0.1,0.5
								C127.1,33.8,127.2,34.1,127.3,34z"/>
						</g>
					</g>
				</g>
			</g>
			<g>
				<path fill="#FFFFFF" d="M148.1,78.9c2-7.9-0.6-21.1-9-25.3c1.2-5.9,0-17-7.4-15.1c-4.8,1.2-4.8,9.4-4.4,15
					c-8.6,3.9-11.5,16.3-9.4,25.5"/>
			</g>
			<g>
				<path fill="#EDEEF1" d="M139,53.6c-1.6,4.6-9.6,2.2-11.8-0.2c-8.6,3.9-11.5,16.3-9.4,25.5l1.2,4.9l29,0.6l0-5.6
					C150.1,71,147.4,57.8,139,53.6z"/>
			</g>
			<path fill="#FFFFFF" d="M138.8,53.7c-0.7-0.2-1.6,0.1-2.3,0.3c-1.1,0.3-2.2,0.5-3.4,0.4c-1.1,0-2.1-0.2-3.1-0.6
				c-1-0.3-1.7-0.7-2.7-0.6c-0.3,0-0.3,0.3-0.2,0.5c0,0-0.6,0.3-0.6,0.3c0.2,1.4,1.4,2.3,2.3,3.4c0.9,1,2.2,2.6,3.5,2.9
				c1.1,0.3,2-0.4,2.6-1.3c0.4-0.6,0.8-1,1.6-0.5c0.3,0.2,0.4,0.5,0.7,0.6c0.4,0.2,0.7,0.3,1.2,0.1c1.2-0.4,2-2.3,2.1-3.4
				C140.5,54.9,140,54,138.8,53.7z"/>
			<g>
				<defs>
					<path id="SVGID_1_" d="M139.4,53.6c-1.6,4.6-9.6,2.2-11.8-0.2c-8.6,3.9-11.5,16.3-9.4,25.5l1.2,6.1l29,0.6l0-6.8
						C150.4,71,147.7,57.8,139.4,53.6z"/>
				</defs>
				<clipPath id="SVGID_2_">
					<use xlink:href="#SVGID_1_"  overflow="visible"/>
				</clipPath>
				<g clip-path="url(#SVGID_2_)">
					<g>
						<circle fill="#FFFFFF" cx="135.6" cy="76.1" r="1.6"/>
						<g>
							<path fill="#FFFFFF" d="M135.8,74.2c-0.1,0-0.3,0-0.4,0c-0.4,0-0.8,0.1-1,0.2c-0.3,0.2-0.6,0.4-0.8,0.8
								c-0.2,0.3-0.3,0.7-0.2,1.1c0,0.4,0.2,0.7,0.4,1c0.1,0.2,0.3,0.6,0.6,0.7c0.3,0.2,0.6,0.2,0.9,0.2c0.3,0,0.6,0,0.9-0.1
								c0.3-0.1,0.6-0.2,0.8-0.4c0.2-0.2,0.4-0.5,0.5-0.8c0.1-0.3,0.2-0.7,0.1-0.9c0-0.2-0.1-0.6-0.4-1c-0.1-0.2-0.3-0.3-0.5-0.4
								c-0.3-0.2-0.5-0.3-0.7-0.3l-0.2,0.6c0.1,0,0.2,0.1,0.4,0.2c0.1,0.1,0.3,0.2,0.4,0.4c0.2,0.3,0.1,0.7,0.1,0.7
								c0,0.2-0.1,0.4-0.2,0.6c-0.1,0.2-0.3,0.3-0.4,0.4c-0.2,0.1-0.3,0.2-0.5,0.2c-0.2,0-0.4-0.1-0.5-0.2c-0.2-0.1-0.3-0.2-0.5-0.4
								c-0.1-0.2-0.1-0.4-0.2-0.5c0-0.2-0.1-0.4,0-0.6c0.1-0.2,0.3-0.3,0.5-0.4c0.1,0,0.1-0.2,0.4-0.3c0.1,0,0.2-0.1,0.2-0.1
								c0.1,0,0.3,0,0.4,0l0.2-0.6C136,74.2,135.9,74.2,135.8,74.2z"/>
						</g>
					</g>
					<g>
						<circle fill="#FFFFFF" cx="137.2" cy="65.3" r="1.6"/>
						<g>
							<path fill="#FFFFFF" d="M137.5,63.4c-0.1,0-0.3,0-0.4,0c-0.4,0-0.8,0.1-1,0.2c-0.3,0.2-0.6,0.4-0.8,0.8
								c-0.2,0.3-0.3,0.7-0.2,1.1c0,0.4,0.2,0.7,0.4,1c0.1,0.2,0.3,0.6,0.6,0.7c0.3,0.2,0.6,0.2,0.9,0.2c0.3,0,0.6,0,0.9-0.1
								c0.3-0.1,0.6-0.2,0.8-0.4c0.2-0.2,0.4-0.5,0.5-0.8c0.1-0.3,0.2-0.7,0.1-0.9c0-0.2-0.1-0.6-0.4-1c-0.1-0.2-0.3-0.3-0.5-0.4
								c-0.3-0.2-0.5-0.3-0.7-0.3l-0.2,0.6c0.1,0,0.2,0.1,0.4,0.2c0.1,0.1,0.3,0.2,0.4,0.4c0.2,0.3,0.1,0.7,0.1,0.7
								c0,0.2-0.1,0.4-0.2,0.6c-0.1,0.2-0.3,0.3-0.4,0.4c-0.2,0.1-0.3,0.2-0.5,0.2c-0.2,0-0.4-0.1-0.5-0.2c-0.2-0.1-0.3-0.2-0.5-0.4
								c-0.1-0.2-0.1-0.4-0.2-0.5c0-0.2-0.1-0.4,0-0.6c0.1-0.2,0.3-0.3,0.5-0.4c0.1,0,0.1-0.2,0.4-0.3c0.1,0,0.2-0.1,0.2-0.1
								c0.1,0,0.3,0,0.4,0l0.2-0.6C137.7,63.4,137.6,63.4,137.5,63.4z"/>
						</g>
					</g>
					<g>
						<circle fill="#FFFFFF" cx="124.3" cy="71" r="3.6"/>
						<g>
							<path fill="#FFFFFF" d="M125.1,67.3c-0.1,0-0.2-0.1-0.3-0.1c-0.9-0.2-1.8,0.1-2.1,0.2c-0.7,0.3-1.4,0.8-1.8,1.4
								c-0.4,0.7-0.7,1.4-0.7,2.2c0,0.8,0.3,1.5,0.7,2.2c0.3,0.5,0.7,1.1,1.2,1.4c0.5,0.3,1.2,0.4,1.8,0.5c0.6,0.1,1.2-0.1,1.8-0.3
								c0.6-0.2,1.1-0.5,1.5-1c0.4-0.4,0.8-1.1,0.9-1.8c0.2-0.7,0.2-1.4,0-1.9c-0.1-0.4-0.4-1.3-1.1-1.9c-0.3-0.3-0.8-0.6-1.1-0.7
								c-0.3-0.1-0.5-0.2-0.7-0.2l-0.2,0.6c0.1,0,0.3,0.1,0.5,0.2c0.3,0.1,0.8,0.5,1.1,0.9c0.6,0.8,0.7,1.7,0.7,1.9
								c0,0.6-0.1,1.1-0.3,1.6c-0.2,0.5-0.6,0.9-1.1,1.2c-0.4,0.3-0.9,0.5-1.5,0.6c-0.5,0-1-0.1-1.5-0.3c-0.5-0.2-1-0.6-1.3-1
								c-0.3-0.5-0.5-1-0.5-1.6c-0.1-0.5,0-1.1,0.2-1.7c0.3-0.5,0.8-0.8,1.2-1.1c0.2-0.1,0.5-0.4,1.3-0.6c0.2,0,0.5-0.1,0.7-0.1
								c0.2,0,0.3,0,0.5,0l0.2-0.6C125.2,67.3,125.2,67.3,125.1,67.3z"/>
						</g>
					</g>
					<g>
						<circle fill="#FFFFFF" cx="146.1" cy="71" r="4.4"/>
						<g>
							<path fill="#FFFFFF" d="M147.1,66.5c-0.1,0-0.2-0.1-0.3-0.1c-1.1-0.2-2.2,0-2.6,0.2c-0.9,0.4-1.7,1-2.2,1.7
								c-0.5,0.8-0.8,1.7-0.8,2.7c0,0.9,0.3,1.8,0.8,2.6c0.4,0.6,0.8,1.3,1.5,1.7c0.7,0.4,1.4,0.5,2.2,0.6c0.7,0.1,1.5-0.1,2.2-0.4
								c0.7-0.3,1.3-0.6,1.8-1.2c0.5-0.5,0.9-1.3,1.1-2.2c0.2-0.8,0.2-1.7,0-2.3c-0.1-0.5-0.5-1.5-1.3-2.3c-0.4-0.4-1-0.7-1.4-0.8
								c-0.3-0.1-0.5-0.1-0.6-0.2l-0.2,0.6c0.1,0,0.3,0.1,0.5,0.2c0.4,0.1,1,0.6,1.5,1.1c0.8,0.9,0.9,2.2,0.9,2.3
								c0,0.7-0.1,1.4-0.4,2c-0.3,0.6-0.8,1.1-1.3,1.5c-0.5,0.4-1.2,0.7-1.9,0.7c-0.6,0.1-1.3-0.1-1.9-0.4c-0.6-0.3-1.2-0.7-1.7-1.3
								c-0.4-0.6-0.6-1.3-0.7-2c-0.1-0.7,0-1.4,0.3-2.1c0.3-0.7,1-1.1,1.5-1.4c0.3-0.2,0.7-0.5,1.7-0.6c0.3,0,0.6-0.1,0.9,0
								c0.2,0,0.3,0,0.5,0l0.2-0.6C147.3,66.5,147.2,66.5,147.1,66.5z"/>
						</g>
					</g>
					<g>
						<circle fill="#FFFFFF" cx="123.5" cy="59.4" r="3.1"/>
						<g>
							<path fill="#FFFFFF" d="M124.1,56.1c-0.1,0-0.3,0-0.3-0.1c-0.8-0.1-1.5,0.1-1.8,0.2c-0.6,0.3-1.2,0.7-1.5,1.3
								c-0.4,0.6-0.6,1.2-0.6,1.9c0,0.7,0.3,1.3,0.6,1.9c0.3,0.4,0.6,0.9,1,1.2c0.5,0.3,1,0.3,1.6,0.4c0.5,0.1,1.1-0.1,1.6-0.2
								c0.5-0.2,1-0.4,1.3-0.8c0.4-0.4,0.7-1,0.8-1.5c0.1-0.6,0.1-1.2,0-1.7c-0.1-0.3-0.3-1.1-0.9-1.6c-0.3-0.3-0.7-0.5-1-0.6
								c-0.3-0.1-0.5-0.2-0.7-0.2l-0.2,0.6c0.1,0,0.2,0.1,0.5,0.2c0.2,0.1,0.7,0.4,0.9,0.8c0.5,0.6,0.5,1.5,0.5,1.6
								c0,0.5-0.1,0.9-0.3,1.3c-0.2,0.4-0.5,0.7-0.9,1c-0.4,0.2-0.8,0.4-1.2,0.5c-0.4,0-0.9-0.1-1.3-0.3c-0.4-0.2-0.8-0.5-1.1-0.9
								c-0.3-0.4-0.4-0.8-0.4-1.3c-0.1-0.4-0.1-0.9,0.1-1.4c0.2-0.4,0.6-0.7,1-0.9c0.2-0.1,0.4-0.4,1-0.5c0.2,0,0.4-0.1,0.6-0.1
								c0.2,0,0.3,0,0.5,0l0.2-0.6C124.3,56.2,124.2,56.1,124.1,56.1z"/>
						</g>
					</g>
				</g>
			</g>
			<g>
				<g>
					<path fill="#7FDE95" d="M126.7,41.2c0.5,0.9,1.5,1.5,2.6,1.4c0.6,0,1-0.5,1.6-0.5c0.7-0.1,1.3,0.5,2,0.6c0.6,0.1,0.9,0,1.5-0.1
						c0.8-0.2,0.3-0.5,1.6-0.5c0.2,0,0.5,0.2,0.8,0.2c1.3-0.1,2.1-0.6,2.7-1.8c0.2-0.4,0.1-0.7-0.1-0.9c0,0,0,0,0-0.1
						c-1.1-2.8-5.7-4-8.5-3.5C128.7,36.2,125.5,38.8,126.7,41.2z"/>
				</g>
				<g>
					<g>
						<path fill="#7FDE95" d="M126.9,40.8c0-0.1-0.1-0.2-0.1-0.3c-0.2-1.1,0.5-2,0.8-2.3c0.6-0.7,1.5-1.3,2.3-1.6
							c0.8-0.4,1.8-0.4,2.7-0.4c0.9,0.1,1.9,0.1,2.8,0.5c0.7,0.3,1.3,0.7,1.9,1.2c0.6,0.4,1.1,0.9,1.4,1.6c0,0.1,0.1,0.2,0.1,0.2
							c0,0,0,0,0,0.1c0,0,0,0.1,0,0.1c0,0.1,0,0.2-0.1,0.4c-0.2,0.3-0.4,0.6-0.6,0.8c-0.2,0.2-0.5,0.3-0.9,0.4
							c-0.2,0-0.3,0.1-0.5,0.1l-0.2,0c0,0,0,0-0.1,0c-0.1,0-0.2-0.1-0.3-0.1c-0.2-0.1-0.4,0-0.5,0c-0.2,0-0.5,0-0.8,0.1
							c-0.1,0-0.3,0.1-0.5,0.3c-0.1,0.1-0.1,0.1-0.2,0.1c-0.1,0.1-0.4,0.1-0.6,0.2c-0.4,0.1-0.7,0.1-1.1,0c-0.3-0.1-0.7-0.3-1.2-0.5
							c-0.1,0-0.4-0.1-0.6-0.1c-0.3,0-0.6,0.1-0.8,0.2c-0.5,0.3-0.8,0.4-1.4,0.3c-0.5-0.1-1.1-0.4-1.4-0.7c-0.2-0.2-0.3-0.3-0.3-0.4
							l-0.6,0.3c0.1,0.1,0.1,0.3,0.4,0.6c0.4,0.5,1.4,1.1,2.4,1c0.5,0,0.9-0.3,1.2-0.4c0.3-0.2,0.5-0.2,0.8-0.1
							c0.5,0.1,0.9,0.4,1,0.4c0.5,0.2,1.1,0.3,1.5,0.2c0.2-0.1,0.4-0.1,0.7-0.2c0.1,0,0.3-0.1,0.4-0.2c0.1-0.1,0.2-0.2,0.3-0.2
							c0.1-0.1,0.3-0.1,0.5-0.1l0.3,0c0.1,0,0.1,0,0.2,0c0.1,0,0.2,0.1,0.4,0.1c0.1,0,0.2,0,0.3,0l0.2,0c0.2,0,0.5-0.1,0.7-0.1
							c0.5-0.1,0.9-0.4,1.3-0.7c0.4-0.4,0.6-0.8,0.8-1.2c0.1-0.2,0.2-0.6,0.1-0.9c-0.1-0.2-0.2-0.4-0.3-0.7
							c-0.2-0.5-0.5-0.9-0.8-1.3c-0.7-0.8-1.7-1.3-2.6-1.6c-0.9-0.4-1.9-0.6-2.9-0.7c-1-0.1-2,0-3,0.3c-1,0.3-1.9,0.7-2.7,1.4
							c-0.3,0.4-1,0.9-1.4,2.3c-0.1,0.5-0.1,1,0.1,1.4c0.1,0.2,0.2,0.4,0.3,0.6L127,41C126.9,41,126.9,40.9,126.9,40.8z"/>
					</g>
				</g>
			</g>
			<g>
				<g>
					<path fill="#505A78" d="M133.3,47.9c0,0.1,0,0.4,0.1,0.7c0,0.1,0.1,0.3,0.2,0.4l0.1,0.1l0,0l0,0c0,0.1,0.1,0.1,0.1,0.2
						c0.1,0.2,0.3,0.2,0.5,0.4c0.3,0.1,0.7,0,0.8-0.2c0.1-0.1,0.2-0.2,0.2-0.3c0,0,0-0.1,0.1-0.2c0,0,0-0.1,0-0.1
						c0.1-0.2,0.2-0.5,0.2-0.7c0.2-0.9-0.4-1.2-0.6-0.1c0,0.1,0,0.2-0.1,0.3c0,0.1,0,0.1-0.1,0.2c0,0,0,0,0,0c0,0,0,0.1,0,0.1
						c0,0.1-0.1,0.1-0.1,0.1c-0.1,0.1-0.1,0.2-0.2,0.1c0-0.1-0.1,0-0.2-0.2c0,0-0.1,0-0.2-0.1l0,0c0,0-0.1-0.1-0.2-0.2
						c-0.1-0.1-0.2-0.3-0.3-0.4C133.5,47.9,133.3,47.8,133.3,47.9z"/>
				</g>
			</g>
			<g>
				<g>
					<path fill="#B2D8F7" d="M134,83.6c-0.6,0.6-1.5,0.5-2,0c-7.2-7.6-15.6-5.4-15.5,0.4c0.2,7.3,4.2,24.5,6.2,24.5
						c2.1,0,1.4-21.7,1.4-21.7s2.3-0.3,9.3-0.3c5.6,0,8.3,0.3,8.3,0.3s-0.7,20.5,1.4,20.5c2.1,0,6.1-16,6.2-23.3
						C149.6,78.1,141.1,76.8,134,83.6z"/>
				</g>
				<g>
					<g>
						<g>
							<path fill="#505A78" d="M124.2,84c-0.2,0.3-0.3,0.9-0.4,1.6c0,3.1,0,6.8,0,8.3c-0.1,3.3-0.1,6.4-0.3,9.4
								c-0.1,0.8-0.1,1.5-0.2,2.3c-0.1,0.7-0.2,1.5-0.5,2.1c0,0.1-0.1,0.2-0.2,0.1c0,0-0.2-0.2-0.2-0.3c-0.1-0.1-0.2-0.3-0.3-0.5
								c-0.3-0.7-0.6-1.4-0.9-2.2c-1-3.1-1.8-6.4-2.5-9.6c-0.7-3.3-1.2-6.6-1.5-9.8c0-0.4-0.1-0.8-0.1-1.2c0-0.4,0-0.8,0.1-1.2
								c0.2-0.8,0.4-1.6,1.1-2.2c0.1-0.2,0.3-0.3,0.5-0.4c0.2-0.1,0.3-0.3,0.5-0.4c0.4-0.2,0.7-0.4,1.2-0.5c0.2-0.1,0.4-0.1,0.6-0.2
								c0.2,0,0.4-0.1,0.6-0.1c0.4-0.1,0.8-0.1,1.2-0.1c1,0,3.2,0.3,5.3,1.5c0.5,0.3,1,0.6,1.5,0.9c0.5,0.3,0.9,0.7,1.3,1.1l0.1,0.1
								l0.1,0.1c0.1,0.1,0.1,0.1,0.2,0.2c0.1,0.1,0.2,0.2,0.3,0.3c0.7,0.8,1.7,0.6,0.5-0.7c-0.1-0.1-0.2-0.2-0.3-0.3
								c-0.1-0.1-0.1-0.1-0.2-0.2c-0.2-0.2-0.5-0.4-0.7-0.6c-1-0.9-2.4-1.8-3.8-2.4c-1.4-0.6-2.9-0.9-4.1-0.9c-0.3,0-0.6,0-0.8,0
								c-0.3,0-0.5,0.1-0.7,0.1c-0.4,0-0.7,0.1-0.8,0.1c-1,0.2-2,0.7-2.8,1.4c-0.7,0.7-1.3,1.6-1.5,2.6c-0.1,0.5-0.1,1-0.2,1.5
								c0,0.5,0,0.9,0.1,1.4c0.1,0.9,0.2,1.8,0.3,2.7c0.5,3.5,1.1,7,2,10.9c0.4,1.9,0.9,3.9,1.6,5.8c0.3,1,0.7,1.9,1.2,2.9
								c0.1,0.2,0.3,0.5,0.4,0.7c0.1,0.1,0.2,0.2,0.3,0.4c0.2,0.2,0.4,0.2,0.6,0.4c0.5,0.2,0.9-0.1,1.1-0.5c0.2-0.2,0.2-0.4,0.2-0.5
								c0.1-0.1,0.1-0.3,0.1-0.4c0.5-2.1,0.5-4.1,0.7-6.1c0.1-2,0.1-4,0.2-6c0-0.3,0-5.7-0.2-9.9C124.5,84.6,124.4,83.7,124.2,84z"
								/>
						</g>
					</g>
				</g>
				<g>
					<g>
						<g>
							<path fill="#505A78" d="M141.9,83.8c-0.2,0.3-0.4,0.9-0.4,1.6c-0.2,3-0.1,6.6-0.1,8c0,3.2,0,6.2,0.3,9.1
								c0.1,0.7,0.1,1.5,0.2,2.2c0.1,0.8,0.2,1.5,0.5,2.3c0.1,0.3,0.4,0.6,0.7,0.6c0.2,0.1,0.3,0,0.5,0c0.1-0.1,0.3-0.1,0.4-0.2
								c0.3-0.2,0.4-0.4,0.5-0.5c0.1-0.2,0.2-0.3,0.3-0.5c0.4-0.7,0.7-1.4,1-2.2c1.2-3,2-6.1,2.7-9.3c0.7-3.2,1.3-6.3,1.5-9.5
								c0-0.4,0-0.8,0.1-1.2c0-0.4-0.1-0.9-0.1-1.4c-0.2-0.9-0.5-1.9-1.2-2.7c-0.3-0.4-0.7-0.7-1.1-1c-0.4-0.2-0.8-0.5-1.3-0.6
								c-0.2-0.1-0.4-0.1-0.7-0.2c-0.2-0.1-0.4-0.1-0.7-0.1c-0.4-0.1-0.9-0.1-1.3-0.1c-0.3,0-0.6,0-1,0.1c-0.4,0-0.9,0.1-1.3,0.3
								c-0.2,0.1-0.5,0.1-0.8,0.2c-0.3,0.1-0.5,0.2-0.8,0.3c-0.5,0.2-1,0.5-1.6,0.8c-0.5,0.3-1,0.7-1.5,1c-0.5,0.4-0.9,0.8-1.3,1.1
								c-0.2,0.1-0.2,0.2-0.2,0.2c-0.1,0.1-0.1,0.1-0.2,0.2c-0.1,0.1-0.2,0.2-0.3,0.3c-0.8,0.9-0.4,1.7,0.7,0.5
								c0.1-0.1,0.2-0.2,0.3-0.3c0.1-0.1,0.1-0.1,0.2-0.2c0.2-0.2,0.4-0.4,0.6-0.5c0.9-0.8,2.1-1.6,3.4-2.2c1.3-0.6,2.6-0.8,3.6-0.8
								c0.3,0,0.5,0,0.7,0c0.2,0,0.4,0.1,0.6,0.1c0.3,0,0.6,0.1,0.7,0.2c0.9,0.2,1.6,0.8,2.2,1.3c0.2,0.3,0.5,0.6,0.7,1
								c0.1,0.2,0.2,0.3,0.2,0.5l0.2,0.6c0.2,0.8,0.1,1.6,0.1,2.4c-0.1,0.8-0.1,1.7-0.2,2.5c-0.4,3.3-1.1,6.6-2.1,10.3
								c-0.5,1.8-1,3.6-1.7,5.4c-0.3,0.9-0.7,1.8-1.1,2.5c-0.1,0.2-0.2,0.4-0.3,0.5c-0.1,0.1-0.1,0.2-0.2,0.2l0,0l0,0c0,0,0,0,0,0
								c0,0,0-0.1-0.1-0.1c0-0.1-0.1-0.2-0.1-0.3c-0.4-1.7-0.5-3.7-0.7-5.6c-0.1-1.9-0.1-3.8-0.1-5.7c0-0.3,0-5.4-0.1-9.4
								C142.2,84.4,142.1,83.6,141.9,83.8z"/>
						</g>
					</g>
				</g>
			</g>
			<g>
				<g>
					<path fill="#505A78" d="M117.7,78.3c0.2-0.3,0.2-1,0.1-1.7c-0.3-2.1-0.3-4.3-0.2-6.3c0.1-1,0.2-1.9,0.3-2.7
						c0.2-0.8,0.3-1.4,0.4-1.9c0.8-2.8,1.9-5.3,3.5-7.5c0.4-0.5,0.9-1,1.3-1.5c0.5-0.4,0.9-0.9,1.5-1.3l0.8-0.6
						c0.3-0.2,0.6-0.3,0.9-0.5l0.4-0.2l0.2-0.1c0.1-0.1,0.3-0.2,0.3-0.3c0.1-0.1,0.2-0.3,0.2-0.4c0-0.1,0-0.3,0-0.4l0-0.5
						c-0.1-2.6-0.2-5.4,0.4-8.3c0.2-1,0.6-2.1,1.1-3c0.5-0.9,1.2-1.6,2.1-2c0.9-0.4,2-0.5,2.9-0.3c1,0.2,1.8,0.8,2.4,1.6
						c1.3,1.6,1.8,3.8,2.1,5.9c0.3,2.1,0.2,4.3-0.1,6.4l0,0.2c0,0.1,0,0.2,0,0.4c0,0.3,0.1,0.5,0.3,0.7c0.1,0.1,0.2,0.2,0.3,0.2
						l0.2,0.1l0.3,0.2c0.5,0.3,1,0.6,1.4,1c0.2,0.2,0.5,0.4,0.7,0.6c0.2,0.2,0.4,0.4,0.6,0.6c0.2,0.2,0.4,0.4,0.6,0.6l0.6,0.7
						c1.5,1.9,2.6,4.2,3.2,6.1c0.5,1.3,1.3,4.2,1.4,7.4c0,1.6,0,3.2-0.2,4.6c0,0.1,0,0.2,0,0.4c0,0.1,0,0.2,0,0.2
						c0,0.2-0.1,0.3-0.1,0.4c-0.2,1.1,0.5,1.7,0.8,0c0-0.1,0.1-0.3,0.1-0.5c0.1-0.4,0.1-0.9,0.2-1.5c0.2-1.8,0.2-3.9-0.1-5.9
						c-0.4-4-2-7.5-2.3-8.2c-1.1-2.5-2.7-4.6-4.6-6.2c-0.5-0.4-1-0.8-1.5-1.1l-0.8-0.5c-0.2-0.1-0.2-0.1-0.2-0.1c0,0,0-0.1,0-0.1
						c0.2-1.2,0.3-2.4,0.3-3.6c0-2.4-0.2-4.8-1-7.2c-0.4-1.2-1-2.4-2-3.3c-1-1-2.4-1.6-3.9-1.5c-0.8,0-1.5,0.2-2.3,0.5
						c-0.4,0.2-0.7,0.4-1,0.6c-0.3,0.3-0.6,0.5-0.8,0.8c-1,1.2-1.5,2.7-1.8,4.1c-0.6,2.9-0.6,5.8-0.4,8.7l0,0.6l0,0c0,0,0,0-0.1,0
						l-0.4,0.2c-0.6,0.3-1.1,0.6-1.6,1l-0.8,0.6c-0.2,0.2-0.5,0.4-0.7,0.6l-0.7,0.7l-0.6,0.7c-1.6,1.9-2.8,4.2-3.7,6.5
						c-0.1,0.2-0.7,2.1-1.1,4.6c-0.4,2.6-0.4,5.8,0.1,8.6C117.3,77.8,117.6,78.6,117.7,78.3z"/>
				</g>
			</g>
			<g>
				<g>
					<path fill="#505A78" d="M138.7,53.6c-0.1,0.1-0.1,0.2-0.1,0.2c-0.1,0.2-0.3,0.3-0.4,0.4c-0.1,0.1-0.2,0.2-0.3,0.2
						c-0.2,0.1-0.3,0.2-0.5,0.3c-0.2,0.1-0.3,0.1-0.5,0.2c-0.3,0.2-0.7,0.2-1,0.3c-0.4,0-0.7,0.2-1.1,0.2c-0.3,0-0.6-0.1-0.9-0.2
						c-0.3,0-0.6,0.1-0.9,0c-0.3-0.1-0.6-0.1-0.9-0.1c-0.3-0.1-0.6-0.2-0.8-0.2c-0.3-0.1-0.6-0.1-1-0.2c-0.3-0.1-0.6-0.2-0.9-0.3
						c-0.2-0.1-0.6-0.3-0.9-0.5c-0.2-0.1-0.4-0.2-0.5-0.3c-0.2-0.2-0.3-0.3-0.4-0.4l-0.6,0.3c0.1,0.1,0.2,0.3,0.5,0.6
						c0.2,0.1,0.5,0.4,0.8,0.6c0.5,0.3,1.1,0.6,1.2,0.6c0.3,0.1,0.7,0.3,1,0.4c0.3,0.1,0.7,0.2,1,0.3c0.3,0.1,0.7,0.1,1,0.2
						c0.3,0.1,0.7,0.2,1,0.2c0.4,0.1,0.8,0,1.2,0c0.4,0,0.8,0,1.2-0.1c0.4-0.1,0.8-0.3,1.1-0.4c0.4-0.2,0.8-0.1,1.2-0.4
						c0.2-0.1,0.4-0.3,0.8-0.8c0.1-0.1,0.2-0.3,0.2-0.5c0.1-0.2,0.1-0.4,0.2-0.6l-0.6-0.2C138.7,53.5,138.7,53.6,138.7,53.6z"/>
				</g>
			</g>
			<g>
				<g>
					<g>
						<path fill="#505A78" d="M126.5,54.8c-0.1,0.3,0.2,1,0.5,1.6c0.4,0.8,1.1,1.5,1.4,1.8c0.6,0.7,1.2,1.3,2,1.8
							c0.7,0.5,1.6,0.9,2.7,0.8c0.9-0.1,1.7-0.8,2.1-1.5c0.6-1,0.4-0.8,0.4-0.8v0l0.1,0.1l0.2,0.2c0.1,0.1,0.3,0.2,0.4,0.4
							c0.2,0.2,0.4,0.3,0.7,0.5c0.1,0.1,0.3,0.1,0.4,0.2c0.2,0,0.3,0.1,0.5,0.1c0.7,0.1,1.4-0.3,1.7-0.7c0.2-0.2,0.5-0.6,0.7-1.1
							c0.2-0.5,0.4-1,0.5-1.4c0.1-0.4,0.1-0.7,0.1-1c0.1-0.6-0.3-1.1-0.5-1c-0.2,0.1-0.3,0.3-0.3,1.1c0,0.1,0,0.3-0.1,0.7
							c-0.1,0.4-0.3,1.1-0.6,1.5c-0.3,0.5-0.7,0.7-0.7,0.7c-0.4,0.2-0.8,0.1-1.2-0.1c-0.2-0.1-0.4-0.3-0.6-0.4
							c-0.1-0.1-0.2-0.2-0.3-0.3l-0.3-0.4c-0.2-0.3-0.5-0.5-0.8-0.4c-0.2,0-0.3,0.1-0.4,0.2l-0.2,0.4c-0.1,0.2-0.2,0.4-0.4,0.7
							c-0.1,0.2-0.2,0.4-0.4,0.5c-0.6,0.7-1.4,0.9-2.3,0.5c-0.9-0.3-1.7-1-2.4-1.7c-0.1-0.1-1-1.1-1.7-1.9
							C127.1,55.2,126.6,54.5,126.5,54.8z"/>
					</g>
				</g>
			</g>
		</g>
		<g>
			<g>
				<g>
					<path fill="#505A78" d="M125.5,86.7c0.4,0.6,2,0.5,2.5,0.6c1.3,0.1,2.4,0,3.6,0.1c1.3,0.1,2.6,0.1,3.8,0.1
						c0.6,0,1.5-0.1,2.1-0.1c0.4,0,1.8-0.1,2.3-0.1c0.6,0,0.9-1-0.1-1c-0.5,0-2.5,0-2.7,0c-1.5-0.1-2.7,0.1-4.2-0.1
						c-1.5-0.2-3.1,0-4.6-0.1C128.2,86.1,125.2,86.1,125.5,86.7z"/>
				</g>
			</g>
		</g>
	</g>
	<g>
		<g opacity="0.1">
			<path fill="#505A78" d="M208,178.5l5.5-13.8c0.1-0.2,0-0.5-0.2-0.6l-49.5-19.7l-7.1-2.7l-7.1-2.9c-0.2-0.1-0.5,0-0.6,0.2
				l-5.5,13.8c-0.1,0.2,0,0.5,0.2,0.6l2.8,1.1l7,2.8l53.8,21.4C207.7,178.8,208,178.7,208,178.5z"/>
			<g>
				<path fill="#505A78" d="M208.1,178.5c-0.2,0.1-0.4,0.2-0.7,0c-7.3-2.9-15.8-6.3-19.2-7.7c-15.4-6.2-28.4-11.3-43.7-17.5
					l-0.4-0.1l-0.2-0.1c0,0,0,0-0.1,0c0,0-0.1-0.1,0-0.1c0,0,0.1-0.2,0.1-0.3l0.6-1.4c0.4-1,0.8-1.9,1.2-2.9
					c0.8-1.9,1.5-3.9,2.3-5.8l1.2-2.9c0.1-0.2,0.2-0.6,0.2-0.5c0,0,0.1,0,0.1,0l0.4,0.1l1.5,0.6l5.8,2.4c7.8,3,15.5,6.1,23.1,9.1
					c7.4,2.9,17.5,6.9,24.8,9.8c1.2,0.5,3.2,1.2,5.5,2.2c0.6,0.2,1.2,0.5,1.8,0.7c0.3,0.1,0.6,0.2,0.9,0.4c0.1,0,0.1,0.1,0.1,0.2
					l-0.2,0.5c-0.5,1.3-1.1,2.7-1.6,4.1c-1.3,3.4-2.7,6.8-3.5,8.8c-0.2,0.5,0.1,0.9,0.4,0.1c0.9-2.2,3-7.5,5-12.5l0.3-0.6l0.1-0.2
					c0-0.1,0-0.2,0-0.3c0-0.2-0.1-0.3-0.2-0.5c-0.2-0.1-0.3-0.1-0.4-0.2l-0.3-0.1l-0.6-0.3c-0.8-0.3-1.7-0.7-2.5-1
					c-1.6-0.6-3.1-1.2-4.4-1.8c-2.6-1-4.5-1.8-5.1-2c-9.3-3.7-17.4-6.9-25.6-10.2c-4.1-1.6-8.1-3.2-12.3-4.9
					c-2.1-0.8-4.3-1.6-6.4-2.5c-1.1-0.4-2.2-0.9-3.3-1.4c-0.6-0.2-1.1-0.5-1.7-0.7l-0.8-0.4l-0.4-0.2c-0.2-0.1-0.5,0-0.7,0.2
					c-0.2,0.2-0.2,0.4-0.3,0.5l-0.2,0.4l-0.3,0.9l-0.7,1.7l-1.4,3.4c-0.9,2.3-1.8,4.6-2.8,6.9l-0.1,0.2c0,0.1,0,0.3,0,0.4
					c0,0.3,0.3,0.5,0.5,0.5l0.9,0.3l1.7,0.7l3.5,1.4l6.9,2.8c9.2,3.7,18.5,7.4,27.6,11c0.8,0.3,13.2,5.2,22.9,9c0.1,0,0.1,0,0.2,0.1
					c0.1,0,0.2,0,0.3,0c0.2,0,0.3-0.1,0.4-0.2C208.2,178.6,208.1,178.5,208.1,178.5z"/>
			</g>
		</g>
		<g>
			<path fill="#FFFFFF" d="M207.5,174.9l5.5-13.8c0.1-0.2,0-0.5-0.2-0.6l-49.5-19.7l-7.1-2.7l-7.1-2.9c-0.2-0.1-0.5,0-0.6,0.2
				l-5.5,13.8c-0.1,0.2,0,0.5,0.2,0.6l2.8,1.1l7,2.8l53.8,21.4C207.1,175.2,207.4,175.1,207.5,174.9z"/>
		</g>
		<g>
			<g>
				<path fill="#505A78" d="M196.3,154.1c-0.2-0.3-0.7-0.6-1.4-1c-7.1-2.9-15.5-6.2-18.8-7.6c-7.5-3.1-14.5-5.7-21.4-8.5
					c-1.7-0.7-3.4-1.4-5.2-2.2c-0.3-0.1-0.7-0.2-1,0c-0.3,0.1-0.6,0.5-0.7,0.7l-0.5,1.3c-0.3,0.9-0.7,1.8-1,2.6
					c-0.7,1.8-1.4,3.6-2.1,5.4c-0.4,0.9-0.7,1.8-1.1,2.7l-0.3,0.7l-0.1,0.3l-0.1,0.2c0,0.1-0.1,0.2-0.1,0.3c-0.1,0.4,0.2,0.9,0.6,1
					l0.7,0.3c14.9,6.1,30.5,12.3,45.2,18.1c3.6,1.4,7.9,3.1,12.1,4.8c1.1,0.4,2.1,0.8,3.2,1.3c0.5,0.2,1.1,0.4,1.6,0.6l0.4,0.2
					l0.2,0.1c0.1,0,0.2,0.1,0.4,0.1c0.5,0.1,1-0.3,1.1-0.8c0.8-2.1,1.6-4,2.3-5.8c0.3-0.7,0.7-1.8,1.3-3.2c0.3-0.7,0.6-1.5,1-2.4
					c0.2-0.5,0.4-0.9,0.6-1.4c0.1-0.1,0.1-0.3,0.2-0.4l0.1-0.2c0-0.1,0.1-0.2,0.1-0.3c0.1-0.2,0-0.5-0.1-0.7
					c-0.1-0.2-0.4-0.3-0.6-0.4c-3.9-1.5-10.3-4.1-13.4-5.3c-1.1-0.4-1.7,0.2-0.2,0.8c2.6,1,9.3,3.7,13.3,5.3c0.1,0,0.1,0.1,0.1,0.1
					c0,0,0,0,0,0l0,0.1l-0.1,0.3c-0.2,0.5-0.4,0.9-0.5,1.3c-0.3,0.9-0.7,1.7-1,2.5c-0.6,1.5-1.2,2.9-1.6,4c-0.9,2.3-1.5,3.7-1.7,4.2
					l-0.3,0.8c-0.1,0.2-0.1,0.2-0.1,0.2c0,0-0.1,0-0.1,0c-0.5-0.2-1-0.4-1.5-0.6c-1.1-0.4-2.2-0.9-3.3-1.3c-2.1-0.9-4.2-1.7-6.3-2.5
					c-4.1-1.6-8.1-3.2-12.1-4.8c-8-3.2-15.9-6.3-24.9-10c-4.8-2-9.7-3.9-14.6-5.9c-0.4-0.1-1-0.4-0.8-0.3l0.3-0.7l1-2.5l1.9-4.9
					l1.9-4.9l0.1-0.3c0,0,0-0.1,0.1-0.1c0,0,0.1-0.1,0.2-0.1c0.1,0,0,0,0.1,0l0.3,0.1l0.6,0.3l2.5,1c6.5,2.7,13.2,5.2,19.7,7.8
					c0.8,0.3,12.9,5.1,22.3,8.8C195.6,154.2,196.4,154.4,196.3,154.1z"/>
			</g>
		</g>
		<g>
			<g opacity="0.1">
				<circle fill="#505A78" cx="153.5" cy="145.8" r="4.5"/>
				<g>
					<path fill="#505A78" d="M153.9,150.1c-2.7,0.2-4.9-2.1-4.6-4.7c0.1-1.3,0.9-2.5,2-3.2c1.1-0.7,2.5-0.8,3.7-0.3
						c0.6,0.2,1.2,0.6,1.7,1.2c0.5,0.5,0.8,1.2,0.9,1.8c0.1,0.3,0.2,0.9,0.1,1.5c-0.1,0.7-0.4,1.4-0.8,1.9c-0.1,0.1-0.1,0.2-0.2,0.2
						l0.3,0.3c0.1-0.1,0.1-0.1,0.2-0.3c0.5-0.7,0.9-1.8,0.9-2.8c0-1-0.3-1.8-0.4-1.9c-1.4-3.3-5.6-3.8-8-1.2
						c-1.2,1.3-1.5,3.3-0.8,4.9c0.7,1.6,2.3,2.8,4.1,2.9c0.1,0,0.6,0.1,1.4-0.1c0.8-0.2,1.7-0.7,2.3-1.4c0,0,0.1-0.1,0.2-0.2
						l-0.3-0.3c-0.1,0.1-0.1,0.1-0.2,0.2c-0.4,0.4-1,0.8-1.5,1C154.6,150,154.1,150,153.9,150.1z"/>
				</g>
			</g>
			<g>
				<circle fill="#F79C82" cx="154.2" cy="145.6" r="4.5"/>
				<g>
					<path fill="#505A78" d="M157.4,148.5c-0.1,0.1-0.1,0.1-0.2,0.1c-0.7,0.7-1.7,1-2.1,1c-0.8,0.2-1.7,0-2.4-0.3
						c-0.8-0.3-1.4-0.8-1.9-1.5c-0.4-0.6-0.8-1.4-0.8-2.3c0-0.6,0.2-1.3,0.5-1.8c0.3-0.6,0.6-1.1,1.1-1.5c0.5-0.4,1.1-0.7,1.7-0.8
						c0.6-0.1,1.3-0.1,1.9,0.1c0.6,0.1,1.3,0.5,1.8,1c0.5,0.5,0.9,1.2,1.1,1.7c0.2,0.4,0.3,1.4,0.1,2.3c-0.1,0.5-0.3,1-0.6,1.4
						c-0.1,0.2-0.2,0.3-0.2,0.4l0.4,0.3c0.1-0.1,0.1-0.2,0.3-0.4c0.3-0.4,0.7-1.2,0.8-2.1c0.2-1.4-0.4-2.8-0.5-3
						c-0.4-0.8-1-1.4-1.7-1.8c-0.7-0.4-1.5-0.7-2.3-0.7c-0.8,0-1.6,0.2-2.4,0.5c-0.7,0.4-1.4,0.9-1.9,1.6c-0.5,0.7-0.8,1.6-0.8,2.5
						c0,0.9,0.2,1.8,0.6,2.6c0.5,0.8,1.2,1.4,2,1.8c0.8,0.4,1.7,0.7,2.6,0.7c0.4-0.1,1.1-0.1,2.2-0.8c0.3-0.2,0.6-0.5,0.9-0.7
						c0.1-0.1,0.2-0.2,0.3-0.4l-0.4-0.3C157.4,148.4,157.4,148.4,157.4,148.5z"/>
				</g>
			</g>
			<g>
				<path fill="#FFFFFF" d="M153.5,143.6c-0.1,0.4-0.1,1.6-0.1,1.6s-0.9,1.1-1.1,1.5c-0.1,0.2,0.1,0.4,0.3,0.3l3.2-0.6
					c0.2,0,0.3-0.3,0.1-0.4l-2.1-2.6C153.8,143.4,153.6,143.4,153.5,143.6z"/>
				<g>
					<path fill="#FFFFFF" d="M153.6,143.6C153.6,143.6,153.6,143.6,153.6,143.6c0.1-0.1,0.2-0.1,0.2,0c0,0,0.1,0.1,0.2,0.2
						c0.1,0.1,0.2,0.3,0.3,0.3c0.2,0.3,0.5,0.6,0.7,0.9c0.2,0.3,0.5,0.6,0.7,0.9c0.1,0.1,0.3,0.3,0.3,0.4c0,0.1,0,0.2-0.2,0.2
						c-0.3,0-0.6,0.1-0.9,0.1c-0.3,0.1-0.6,0.1-0.9,0.2l-0.9,0.2c-0.3,0-0.6,0.2-0.7,0c0,0,0-0.1,0-0.1c0,0,0.1-0.1,0.1-0.2
						c0.1-0.1,0.2-0.3,0.3-0.4c0.2-0.3,0.4-0.5,0.6-0.7c0,0,0,0,0.1-0.2c0-0.2,0-0.5,0-0.9c0-0.2,0-0.5,0-0.6
						C153.6,143.7,153.6,143.7,153.6,143.6l-0.2,0c0,0,0,0.1,0,0.2c0,0.2,0,0.5-0.1,0.9l0,0.6l-0.3,0.4c-0.2,0.3-0.4,0.5-0.6,0.8
						l-0.1,0.2c0,0.1-0.1,0.2-0.1,0.3c0,0.1,0.1,0.2,0.2,0.2c0.1,0,0.2,0,0.3,0c0.3-0.1,0.6-0.1,0.9-0.2c0.3,0,0.6-0.1,0.9-0.1
						l1-0.2l0.3-0.1c0.1,0,0.2-0.1,0.3-0.3c0-0.1,0-0.3-0.1-0.4l-0.2-0.2l-0.7-0.8c-0.2-0.3-0.4-0.6-0.6-0.8
						c-0.1-0.1-0.3-0.3-0.6-0.7c-0.1-0.2-0.4-0.2-0.5-0.1c0,0-0.1,0.1-0.1,0.2L153.6,143.6C153.6,143.6,153.6,143.6,153.6,143.6z"/>
				</g>
			</g>
		</g>
		<g>
			<g>
				<g>
					<path fill="#505A78" d="M205.2,166.1c0-0.3-0.5-0.5-0.6-0.5c-0.3-0.2-0.6-0.3-1-0.5c-0.3-0.2-0.7-0.3-1-0.5
						c-0.2-0.1-0.4-0.1-0.6-0.2c-0.1,0-0.5-0.1-0.7-0.2c-0.2-0.1-0.4,0.4-0.2,0.5c0.1,0.1,0.7,0.3,0.7,0.3c0.4,0.2,0.8,0.2,1.2,0.5
						c0.4,0.3,0.8,0.3,1.2,0.5C204.4,166.1,205.2,166.4,205.2,166.1z"/>
				</g>
			</g>
		</g>
		<g>
			<g>
				<g>
					<path fill="#505A78" d="M199.3,163.8c0-0.4-0.8-0.6-1-0.7c-0.6-0.3-1.1-0.4-1.6-0.7c-0.5-0.3-1.1-0.5-1.7-0.7
						c-0.3-0.1-0.7-0.2-0.9-0.3c-0.2-0.1-0.8-0.3-1.1-0.4c-0.3-0.1-0.6,0.3-0.2,0.5c0.2,0.1,1.1,0.4,1.2,0.5
						c0.7,0.3,1.2,0.4,1.9,0.8c0.6,0.4,1.4,0.5,2,0.9C198,163.6,199.4,164.1,199.3,163.8z"/>
				</g>
			</g>
		</g>
		<g>
			<g>
				<g>
					<path fill="#505A78" d="M191,160.5c0-0.4-0.8-0.6-1-0.7c-0.6-0.3-1-0.4-1.6-0.7c-0.5-0.3-1.1-0.5-1.7-0.7
						c-0.3-0.1-0.7-0.2-0.9-0.3c-0.2-0.1-0.8-0.3-1.1-0.4c-0.3-0.1-0.6,0.3-0.2,0.5c0.2,0.1,1.1,0.4,1.2,0.5
						c0.7,0.3,1.2,0.4,1.9,0.8c0.6,0.4,1.4,0.5,2,0.8C189.7,160.3,191.1,160.8,191,160.5z"/>
				</g>
			</g>
		</g>
		<g>
			<g>
				<g>
					<path fill="#505A78" d="M182.6,157.1c0-0.4-0.8-0.6-1.1-0.7c-0.6-0.3-1.1-0.4-1.7-0.7c-0.6-0.3-1.2-0.5-1.8-0.8
						c-0.3-0.1-0.7-0.2-1-0.3c-0.2-0.1-0.8-0.3-1.1-0.4c-0.3-0.1-0.6,0.3-0.2,0.5c0.2,0.1,1.1,0.5,1.2,0.5c0.7,0.3,1.3,0.4,1.9,0.8
						c0.7,0.4,1.4,0.6,2.1,0.9C181.2,156.9,182.6,157.5,182.6,157.1z"/>
				</g>
			</g>
		</g>
		<g>
			<g>
				<g>
					<path fill="#505A78" d="M174,153.7c0-0.4-0.8-0.6-1-0.7c-0.6-0.3-1-0.4-1.6-0.7c-0.5-0.3-1.1-0.5-1.7-0.7
						c-0.3-0.1-0.7-0.2-0.9-0.3c-0.2-0.1-0.8-0.3-1-0.3c-0.3-0.1-0.6,0.3-0.2,0.5c0.2,0.1,1.1,0.4,1.2,0.5c0.7,0.3,1.2,0.4,1.9,0.8
						c0.6,0.4,1.4,0.5,2,0.8C172.7,153.6,174,154.1,174,153.7z"/>
				</g>
			</g>
		</g>
		<g>
			<g>
				<g>
					<path fill="#505A78" d="M166,150.6c0-0.3-0.6-0.5-0.7-0.6c-0.4-0.2-0.8-0.3-1.2-0.5c-0.4-0.2-0.8-0.4-1.3-0.6
						c-0.2-0.1-0.5-0.2-0.7-0.2c-0.1,0-0.6-0.2-0.8-0.2c-0.2-0.1-0.5,0.4-0.2,0.5c0.2,0.1,0.8,0.3,0.9,0.4c0.5,0.2,0.9,0.3,1.4,0.6
						c0.5,0.3,1,0.4,1.5,0.6C165,150.5,166,150.9,166,150.6z"/>
				</g>
			</g>
		</g>
		<g>
			<g>
				<path fill="#505A78" d="M203.8,169.6c-0.1-0.2-0.2-0.3-0.4-0.5c-0.2-0.2-0.4-0.4-0.6-0.7c-0.8-1-1.1-2.4-1.3-3.7
					c-0.2-1.3-0.4-2.4-0.7-3c-0.2-0.7-0.6-1.4-1.2-2l-0.4-0.4c-0.2-0.1-0.3-0.2-0.5-0.3c-0.3-0.2-0.7-0.3-1.1-0.4
					c-0.7-0.1-1.5-0.1-2.2,0.2c-0.7,0.2-1.3,0.6-1.9,1c-1.1,0.8-2.1,1.6-3.3,2.2c-0.6,0.3-1.2,0.5-1.8,0.6c-0.6,0-1.2-0.1-1.8-0.4
					c-0.3-0.1-0.5-0.4-0.7-0.6c-0.2-0.3-0.4-0.5-0.5-0.8c-0.3-0.6-0.5-1.2-0.6-1.9c-0.3-1.4-0.4-2.9-1-4.4c-0.3-0.7-0.7-1.5-1.4-2
					c-0.7-0.5-1.5-0.8-2.3-0.9c-0.8-0.1-1.7,0.2-2.4,0.5c-0.7,0.3-1.3,0.8-1.9,1.2c-1.1,0.8-2.4,1.9-3.7,2.3c-0.7,0.2-1.4,0.1-2-0.1
					c-0.6-0.3-1.1-0.7-1.4-1.2c-0.2-0.3-0.5-0.9-0.7-1.8c-0.2-0.8-0.4-1.8-0.6-2.9c-0.2-1-0.5-2.1-1.2-3c-0.3-0.4-0.6-0.6-0.8-0.8
					c-0.5-0.4-1-0.3-1.1-0.2c-0.1,0.1,0,0.2,0.1,0.4c0.1,0.2,0.3,0.3,0.6,0.5c0.1,0.1,0.2,0.2,0.3,0.3c0,0.1,0.1,0.1,0.2,0.2
					c0.1,0.1,0.1,0.2,0.2,0.2c0.1,0.1,0.1,0.2,0.2,0.3c0.5,0.9,0.7,2.2,0.9,3.5c0.2,1.3,0.5,2.6,1.1,3.5c0.3,0.5,0.6,0.8,0.9,1.1
					c0.3,0.3,0.5,0.4,0.6,0.4c0.4,0.3,0.9,0.4,1.3,0.5c0.5,0,1,0.1,1.4,0c0.9-0.2,1.7-0.6,2.4-1c1.4-0.9,2.5-2,3.8-2.6
					c0.6-0.3,1.3-0.5,2-0.4c0.7,0.1,1.3,0.3,1.8,0.8c1,0.9,1.3,2.6,1.5,4.2c0.1,0.8,0.3,1.7,0.5,2.6c0.3,0.9,0.8,1.8,1.6,2.4
					c0.8,0.6,1.8,0.9,2.8,0.9c1-0.1,1.9-0.5,2.7-1c1.5-1,2.8-2.2,4.2-2.8c0.7-0.3,1.4-0.4,2.1-0.2c0.7,0.2,1.3,0.6,1.7,1.2
					c0.1,0,0.2,0.3,0.4,0.7c0.2,0.4,0.4,1.1,0.5,1.9c0.2,0.8,0.3,1.7,0.5,2.7c0.2,0.9,0.6,2,1.3,2.7c0.4,0.4,0.9,0.7,1.2,0.8
					C203.7,169.7,203.9,169.7,203.8,169.6z"/>
			</g>
		</g>
	</g>
	<g>
		<g>
			<path fill="#505A78" d="M196.5,156.1c0.1-0.2,0.3-0.4,0.4-0.8c0.1-0.2,0.2-0.3,0.3-0.5c0,0,0.1-0.1,0.1-0.1l0,0l0,0
				c0.1-0.1,0.2-0.3,0.3-0.3c0.3-0.3,0.6-0.6,1-0.6c0.4-0.1,0.7,0,1,0.1c0.2,0,0.4,0.2,0.5,0.3c0.1,0,0.2,0.1,0.3,0.2
				c0,0.1,0.1,0.1,0.1,0.2c0.1,0.2,0.2,0.5,0.2,0.7c0,0.5,0.2,0.9,0.4,0.9c0.2,0.1,0.6-0.2,0.4-1.2c0-0.1-0.1-0.3-0.1-0.5
				c0-0.1-0.1-0.2-0.1-0.3c0-0.1,0-0.1-0.1-0.1c-0.1-0.1-0.1-0.2-0.2-0.3c-0.1-0.2-0.3-0.4-0.4-0.4c-0.2-0.3-0.5-0.4-0.9-0.5
				c-0.3-0.1-0.6-0.1-1-0.2c-0.8,0-1.4,0.5-1.9,1c0,0-0.2,0.3-0.3,0.6l0,0.1c0,0,0,0.1-0.1,0.2l-0.1,0.2c-0.1,0.3-0.1,0.6-0.2,0.8
				C196.3,156,196.4,156.3,196.5,156.1z"/>
		</g>
	</g>
	<g>
		<g>
			<g opacity="0.1">
				<path fill="#505A78" d="M202,98.7l-40.2-4.4c-0.2,0-0.4-0.2-0.3-0.4l3.5-33.3c0-0.2,0.2-0.4,0.4-0.3l28.1,3l25.9,2.8
					c0.2,0,0.4,0.2,0.3,0.4l-3.5,33.3c0,0.2-0.2,0.4-0.4,0.3l-3.4-0.4L202,98.7z"/>
				<g>
					<path fill="#505A78" d="M202.1,98.7c0.1,0.1,0.4,0.2,0.8,0.3c2,0.2,4.2,0.4,6.3,0.6c1.1,0.1,2.1,0.2,3.1,0.3c1,0.1,2,0.3,3,0.4
						l0.4,0c0.1,0,0.4,0,0.5-0.1c0.1-0.1,0.2-0.3,0.2-0.4l0-0.4c0-0.5,0.1-0.9,0.1-1.4c0.1-0.9,0.2-1.7,0.3-2.5
						c0.2-1.6,0.3-2.9,0.4-3.8c0.9-8.7,1.8-16.7,2.6-24.6l0-0.4c0-0.1,0.1-0.3,0-0.5c-0.1-0.2-0.3-0.3-0.5-0.3l-0.4,0l-1.5-0.2
						c-1-0.1-2-0.2-3-0.3c-2-0.2-4-0.4-6-0.7c-4.1-0.4-8.2-0.9-12.5-1.4c-8.6-0.9-17.4-1.9-26.1-2.8l-3.3-0.3l-0.8-0.1l-0.2,0
						l-0.1,0c-0.1,0-0.1,0-0.2,0c-0.2,0-0.5,0.2-0.5,0.4c0,0.1,0,0.1,0,0.2l0,0.1l0,0.2l0,0.4l-0.1,0.8c-0.2,2.2-0.5,4.4-0.7,6.5
						c-0.5,4.3-0.9,8.6-1.4,12.9c-0.2,2.1-0.5,4.3-0.7,6.7c-0.1,1.2-0.2,2.4-0.4,3.6c-0.1,0.6-0.1,1.2-0.2,1.8l0,0.2
						c0,0.1,0,0.2,0,0.4c0.1,0.2,0.4,0.4,0.6,0.4l0.9,0.1c4.9,0.5,9.8,1,13.9,1.5c4.3,0.5,19.1,2,24.9,2.6c0.6,0.1,0.8-0.3,0-0.4
						c-6-0.6-28.1-3-30.3-3.3c-2.6-0.3-5.1-0.6-7.6-0.8c-0.6-0.1-1.2-0.1-1.8-0.2c-0.1,0-0.1-0.1-0.1-0.1l0-0.4l0.1-0.9
						c0.1-1.2,0.3-2.4,0.4-3.6c0.5-4.7,1-9.3,1.5-13.9c0.5-4.6,1-9.2,1.5-13.9l0-0.4c0-0.2,0-0.2,0.1-0.3c0.1,0,0.1-0.1,0.2,0l0.4,0
						c0.6,0.1,1.2,0.1,1.8,0.2c1.2,0.1,2.4,0.3,3.6,0.4c2.5,0.3,5,0.5,7.5,0.8c10.3,1.1,20.7,2.2,31.1,3.4l7.8,0.8l1,0.1l0.5,0.1
						c0.1,0,0.1,0,0.1,0c0,0,0,0,0,0c0,0,0,0,0,0.1l0,0.2l-0.1,0.5l-0.1,1l-0.4,3.9c-0.5,5.2-1.1,10.4-1.6,15.5
						c0,0.4-0.4,4.1-0.9,9.1c-0.1,0.6-0.1,1.3-0.2,1.9c0,0.3-0.1,0.7-0.1,1c0,0.2,0,0.2-0.1,0.3c0,0,0,0-0.1,0l-0.2,0
						c-1.4-0.2-2.8-0.4-4.2-0.5c-2.9-0.3-5.8-0.5-8.5-0.8C202.4,98.5,202,98.6,202.1,98.7z"/>
				</g>
			</g>
			<g>
				<path fill="#FFFFFF" d="M199.9,94.7l-40.2-4.4c-0.2,0-0.4-0.2-0.3-0.4l3.5-33.3c0-0.2,0.2-0.4,0.4-0.3l28.1,3l25.9,2.8
					c0.2,0,0.4,0.2,0.3,0.4l-3.5,33.3c0,0.2-0.2,0.4-0.4,0.3l-3.4-0.4L199.9,94.7z"/>
			</g>
			<g>
				<g>
					<path fill="#505A78" d="M171,57.1c-0.2-0.2-0.9-0.4-1.6-0.6c-1.4-0.2-2.8-0.3-4.2-0.5l-1.1-0.1l-0.5-0.1l-0.4,0
						c-0.1,0-0.3,0-0.4,0.1c-0.2,0.1-0.4,0.4-0.4,0.7l-0.1,0.6c0,0.4-0.1,0.7-0.1,1c-0.6,5.4-1.1,10.2-1.4,12.7
						c-0.4,3.7-0.8,7.2-1.2,10.7c-0.2,1.7-0.4,3.4-0.5,5.1c-0.1,0.8-0.2,1.7-0.3,2.5l0,0.3c0,0.2,0,0.4,0,0.5
						c0.1,0.3,0.4,0.6,0.8,0.6l1.3,0.1c8.9,1,17.6,1.9,27.1,3c4.4,0.5,8.9,1,13.4,1.5c2.3,0.2,4.5,0.4,6.8,0.7
						c1.1,0.1,2.3,0.2,3.4,0.4l1.7,0.2c0.5,0.2,1.1-0.1,1.3-0.6c0-0.1,0-0.3,0.1-0.4l0-0.2l0-0.4c0.9-8.1,1.7-16.1,2.5-23.8
						c0.1-1.4,0.3-3,0.5-4.6c0.1-0.8,0.2-1.6,0.3-2.5c0-0.4,0.1-0.9,0.1-1.3c0.1-0.4,0-0.9-0.4-1.1c-0.2-0.1-0.4-0.2-0.6-0.2l-0.4,0
						c-5.9-0.6-12.3-1.3-17.5-1.8c-4.3-0.4-19-1.9-24.7-2.5c-1.1-0.1-1.6,0.7,0,0.8c5.9,0.6,27.8,3,30,3.2c4.4,0.5,8.5,0.9,12.1,1.3
						l0.4,0c0,0,0.1,0,0.1,0.1l-0.1,0.9c-0.1,0.7-0.1,1.4-0.2,2.1c-0.1,1.4-0.3,2.8-0.4,4.2c-0.3,2.8-0.6,5.5-0.9,8.3
						c-0.6,5.5-1.2,11-1.8,16.8l-0.1,0.6c0,0.1,0,0.1-0.1,0.1c0,0,0,0-0.1,0l-0.2,0l-0.6-0.1c-0.8-0.1-1.7-0.2-2.5-0.3
						c-1.7-0.2-3.5-0.4-5.4-0.5c-14.4-1.6-29.1-3.1-43.7-4.7l-1.1-0.1l-0.1,0l0,0c0,0,0,0,0,0l0.2-2.1c0.1-1.4,0.3-2.8,0.4-4.2
						c0.3-2.8,0.6-5.6,0.9-8.4c0.1-0.6,0.9-8.4,1.7-16.6l0.1-1.1l0-0.4c0,0,0,0,0,0c0,0,0,0,0,0l0.2,0l0.5,0.1l1.1,0.1
						c1.4,0.1,2.8,0.3,4.2,0.4C170.4,57.4,171.2,57.4,171,57.1z"/>
				</g>
			</g>
			<g>
				<g>
					<path fill="#505A78" d="M210.6,90.9c0-0.3-0.2-0.9-0.5-1.6c-1.6-2.7-3.6-5.9-4.4-7.1c-1.8-2.9-3.4-5.5-5-8.1
						c-0.4-0.7-0.8-1.3-1.2-2l-0.3-0.5c-0.2-0.3-0.4-0.4-0.7-0.5c-0.3-0.1-0.6,0-0.9,0.1c-0.3,0.2-0.4,0.3-0.5,0.4
						c-1.2,1-2.4,2.1-3.7,3.1c-2.5,2.2-5.1,4.4-7.7,6.5c-1.3,1.1-2.5,2.2-3.8,3.3l-0.5,0.4c-0.1,0.1-0.1,0.1-0.1,0.1c0,0,0,0-0.1,0
						c-0.1,0-0.1,0-0.2,0c0,0-0.1-0.1-0.2-0.2l-0.2-0.2c-0.6-0.6-1.1-1.2-1.7-1.8c-1.1-1.2-2.4-2.5-3.7-3.9l-0.5-0.5l-0.2-0.3
						l-0.1-0.1c0,0-0.1-0.1-0.2-0.2c-0.3-0.2-0.7-0.3-1.1-0.2c-0.2,0-0.4,0.1-0.5,0.2l-0.3,0.2c-0.7,0.6-1.4,1.1-2,1.6
						c-1.4,1.1-6.1,5-8,6.6c-0.9,0.7-0.7,1.6,0.6,0.6c1.9-1.5,8.9-7.2,9.6-7.8l0.6-0.5c0.1-0.1,0.2-0.1,0.3-0.1
						c0.1,0,0.5,0.5,0.8,0.8c0.6,0.7,1.3,1.4,1.9,2c1.3,1.3,2.5,2.6,3.7,3.9l0.2,0.2l0.1,0.1c0.1,0.1,0.1,0.1,0.2,0.2
						c0.3,0.2,0.7,0.3,1,0.2c0.2,0,0.3-0.1,0.5-0.2c0.1-0.1,0.2-0.2,0.3-0.2l0.5-0.4c0.7-0.6,1.4-1.2,2-1.8c1.4-1.2,2.8-2.4,4.3-3.7
						c1.5-1.3,3-2.6,4.6-3.9c1.5-1.3,3-2.6,4.4-3.9c0.1,0,0.1,0,0.2,0c0,0,0.1,0,0.1,0.1l0.2,0.3l0.8,1.3l1.6,2.5
						c1.1,1.7,2.1,3.4,3.2,5.1c0.2,0.3,3,4.8,5.3,8.3C210.1,90.6,210.6,91.2,210.6,90.9z"/>
				</g>
			</g>
			<g>
				<path fill="#B2D8F7" d="M185.1,74.2c-2.2-0.6-3.9-2.3-4.6-4.6c-0.6-2.3,0-4.7,1.6-6.3c0.3-0.3,0.1-0.7-0.3-0.7
					c-0.5,0-1,0.1-1.5,0.3c-1.4,0.4-2.6,1.3-3.4,2.4c-0.3,0.4-0.8,1.2-0.9,1.8c-0.2,1.1-0.4,2.3-0.2,3.5c0.8,3.6,4.5,5.8,8.1,4.8
					c0.4-0.1,0.8-0.3,1.2-0.5C185.6,74.9,185.5,74.3,185.1,74.2z"/>
				<g>
					<path fill="#B2D8F7" d="M185.2,74.4C185.2,74.4,185.2,74.4,185.2,74.4c0.2,0.2,0.1,0.4,0,0.4c-0.3,0.1-0.7,0.3-1,0.4
						c-0.7,0.2-1.3,0.3-1.6,0.3c-1.2,0-2.4-0.3-3.4-0.9c-1-0.6-1.9-1.5-2.4-2.5c-0.5-1-0.9-2.2-0.7-3.4c0.1-0.5,0.2-0.9,0.3-1.4
						c0.1-0.4,0.3-0.8,0.6-1.2c0.3-0.4,0.5-0.8,0.8-1.2c0.3-0.4,0.6-0.7,1-0.9c0.8-0.5,1.7-0.9,2.6-1l0.3,0c0.1,0,0.3,0,0.3,0
						c0.1,0,0.2,0.1,0.1,0.2c0,0,0,0,0,0.1l-0.1,0.1c-0.1,0.1-0.2,0.2-0.2,0.3c-0.2,0.2-0.3,0.4-0.4,0.6c-0.5,0.8-1,2-1,3.1
						c-0.1,1.1,0.1,2.3,0.5,3.2c0.2,0.6,1,1.9,2.2,2.8c0.6,0.5,1.4,0.8,2,1C184.9,74.3,185,74.4,185.2,74.4l0-0.3
						c-0.1,0-0.1,0-0.3-0.1c-0.6-0.2-1.7-0.7-2.4-1.4c-1.4-1.3-1.8-3.1-1.9-3.4c-0.2-1.1-0.1-2.1,0.2-3.1c0.2-0.5,0.4-1,0.6-1.4
						c0.1-0.2,0.3-0.4,0.4-0.6c0.1-0.1,0.2-0.2,0.2-0.3c0.1-0.1,0.2-0.2,0.3-0.4c0.2-0.4-0.1-0.8-0.5-0.9c-0.3,0-0.6,0-0.9,0.1
						c-0.5,0.1-1.1,0.3-1.6,0.5c-1,0.4-1.9,1-2.6,2c-0.3,0.5-0.6,1-0.9,1.5c-0.3,0.6-0.3,1.2-0.4,1.8c-0.1,0.6-0.1,1.2,0,1.8
						c0.1,0.6,0.2,1.2,0.5,1.7c0.5,1.1,1.3,2,2.3,2.7c1,0.7,2.1,1.2,3.3,1.3c0.6,0,1.5,0.1,3-0.5c0.2-0.1,0.5-0.2,0.7-0.3
						c0.4-0.2,0.4-0.7,0.2-1c-0.1-0.1-0.2-0.2-0.3-0.2L185.2,74.4C185.1,74.4,185.1,74.4,185.2,74.4z"/>
				</g>
			</g>
			<g>
				<g>
					<path fill="#505A78" d="M176.7,65.5c0.2-0.1,0.6-0.4,1-0.7c0.6-0.5,1.3-1,2-1.3c0.7-0.3,1.3-0.4,1.6-0.5c0.2,0,0.5-0.1,0.5,0
						c0.1,0,0.1,0.1,0.1,0.2c0,0,0,0.1-0.1,0.1l-0.2,0.2c-0.1,0.2-0.3,0.3-0.4,0.5c-0.5,0.7-0.8,1.4-1.1,2.2
						c-0.4,1.6-0.3,3.3,0.5,4.9c0.5,1,1.3,1.9,2.3,2.6c0.5,0.3,1,0.6,1.6,0.8l0.4,0.1l0,0l0,0l-0.1,0c-0.5,0.2-1.1,0.4-1.6,0.5
						c-0.6,0.1-1.1,0.1-1.7,0c-0.8-0.1-1.6-0.3-2.4-0.8c-0.8-0.5-1.5-1.1-1.9-1.7c-0.2-0.3-0.6-1-0.9-1.8c-0.3-0.8-0.3-1.8-0.3-2.5
						c0-0.3,0.1-0.5,0.1-0.7c0.1-0.4,0-0.7-0.1-0.8c-0.1-0.1-0.4,0.1-0.5,0.8c0,0.1,0,0.2-0.1,0.4c0,0.1,0,0.1,0,0.2
						c0,0.1,0,0.3,0,0.5c0,0.7,0,1.6,0.3,2.3c0.4,1.6,1.5,2.7,1.7,2.9c2.2,2.2,5.3,2.6,7.8,1.4c0.1,0,0.4-0.1,0.5-0.3
						c0.1-0.2,0.2-0.4,0.1-0.6c-0.1-0.2-0.2-0.4-0.4-0.5c-0.1,0-0.1,0-0.2-0.1l-0.1,0l-0.2-0.1c-0.5-0.2-1-0.4-1.4-0.7
						c-1.6-1.1-2.6-2.9-2.7-4.8c-0.1-1,0.1-1.9,0.5-2.8c0.2-0.4,0.4-0.9,0.7-1.2c0.1-0.2,0.3-0.4,0.5-0.5c0.4-0.4,0.3-1,0-1.3
						c0,0,0,0-0.1-0.1c-0.1-0.1-0.2-0.1-0.5-0.1c-0.1,0-0.2,0-0.3,0c-0.1,0-0.2,0-0.2,0c-0.3,0-0.8,0.1-1.3,0.3c-1,0.3-2,1-2.7,1.8
						C176.8,65,176.5,65.6,176.7,65.5z"/>
				</g>
			</g>
			<g opacity="0.1">
				<path fill="#505A78" d="M168,82.3c1.2-0.6,2.2-1.4,3.1-2.4c0.3-0.3,2.2-2,2.3-1.6c0.1,0.5-1.1,2.8-1.1,3.3
					c0.1,0.9-0.3,2-1.2,2.3c-0.6,0.2-1.3-0.1-1.9,0.1c-0.6,0.2-1,0.7-1.4,1.2c-0.5,0.5-1.1,1-1.8,0.8c-0.4-0.2-0.6-0.5-0.7-0.9
					L168,82.3z"/>
				<g>
					<path fill="#505A78" d="M167.9,82.3c-0.6,0.6-1.4,1.3-1.7,1.6c-0.3,0.3-0.5,0.6-0.8,0.8l-0.1,0.1c-0.1,0.1-0.1,0.1-0.1,0.2
						c0,0.2,0.1,0.3,0.1,0.4c0.1,0.2,0.2,0.4,0.4,0.5c0.4,0.3,0.9,0.4,1.3,0.2c0.4-0.2,0.7-0.4,1-0.7c0.5-0.6,0.9-1.2,1.6-1.3
						c0.5-0.1,1.1,0.3,1.8,0c0.7-0.2,1.1-1,1.2-1.6c0.1-0.3,0.1-0.6,0.1-1c0-0.2,0.1-0.5,0.2-0.8c0.2-0.6,0.5-1.1,0.7-1.6
						c0-0.1,0.1-0.3,0.1-0.5c0.1-0.3,0.1-0.6-0.1-0.7c-0.2-0.1-0.5,0-0.7,0.1c-0.2,0.1-0.3,0.2-0.4,0.3c-0.6,0.4-1.1,0.9-1.5,1.3
						c-0.2,0.3-0.9,0.9-1.6,1.4c-0.4,0.3-0.8,0.5-1.1,0.7c-0.1,0.1-0.2,0.1-0.3,0.2l0.1,0.3c0.1,0,0.1-0.1,0.3-0.1
						c0.3-0.2,1-0.6,1.5-1c0.5-0.4,0.9-0.8,1.2-1.1c0.3-0.3,0.5-0.5,0.6-0.6c0.3-0.2,0.5-0.4,0.8-0.6c0.1-0.1,0.3-0.2,0.4-0.3
						c0.1,0,0.1-0.1,0.2-0.1c0,0,0,0,0.1,0c0.1,0,0.1,0,0.1,0.1c0,0-0.1,0.2-0.1,0.3c-0.1,0.3-0.2,0.6-0.4,0.9l-0.4,0.9
						c-0.1,0.2-0.1,0.3-0.2,0.5c-0.1,0.2-0.1,0.4,0,0.6c0,0.6-0.2,1.2-0.6,1.6c-0.4,0.4-1.1,0.3-1.9,0.2c-0.4,0-0.8,0.1-1.1,0.4
						c-0.3,0.2-0.6,0.5-0.8,0.8c-0.4,0.5-0.9,1.1-1.5,0.9c-0.3-0.1-0.5-0.3-0.6-0.6c0-0.1,0,0,0-0.1l0,0l0.1-0.1l0.4-0.4
						c0.2-0.3,0.6-0.6,1.2-1.3c0.2-0.2,0.4-0.4,0.6-0.7l0.2-0.2L167.9,82.3C167.9,82.3,167.9,82.3,167.9,82.3z"/>
				</g>
			</g>
			<g opacity="0.1">
				<path fill="#505A78" d="M186.3,82.1c-2.2,1.7-5,3.7-5,3.7l0.1,1.7c0,0.7,0.8,1,1.3,0.6c2.7-2.4,6.3-5.1,8.7-7.4
					c0.7-0.7,1.5-1.4,2.5-1.2c0.7,0.1,1.4,0.7,2.1,0.2c0.2-0.2,0.4-0.5,0.4-0.8c0.5-2.3,1-4.5,1.5-6.8
					C194,75.1,190.1,79.1,186.3,82.1z"/>
				<g>
					<path fill="#505A78" d="M186.4,82.1l0.1-0.1l0.6-0.5c0.4-0.3,0.8-0.6,1.2-0.9c0.7-0.6,1.3-1.1,1.7-1.4c1.2-1.1,2.4-2.1,3.5-3.1
						c1.2-1,2.3-2.1,3.6-3l0.3-0.3l0,0.1l-0.1,0.4c-0.2,0.8-0.3,1.5-0.5,2.3c-0.1,0.6-0.3,1.2-0.4,1.8l-0.2,0.9
						c-0.1,0.3-0.1,0.6-0.2,0.8c-0.1,0.2-0.3,0.4-0.5,0.5c-0.2,0.1-0.4,0-0.7-0.1c-0.3-0.1-0.6-0.2-1-0.3c-0.4,0-0.7,0-1,0.2
						c-0.6,0.3-1.1,0.7-1.6,1.1c-0.4,0.4-0.9,0.8-1.4,1.3c-0.9,0.8-1.9,1.6-2.8,2.3c-0.9,0.8-2,1.7-3.1,2.6
						c-0.3,0.2-0.5,0.5-0.8,0.7l-0.4,0.3c-0.1,0.1-0.3,0.2-0.4,0.3c-0.2,0.1-0.5,0-0.7-0.1c-0.2-0.2-0.2-0.4-0.2-0.7
						c0-0.2,0-0.5,0-0.8c0-0.1,0-0.3,0-0.5c0,0,0,0,0.1-0.1c0.1-0.1,0.2-0.1,0.2-0.2c0.6-0.5,1.4-1,2.1-1.6c0.8-0.6,1.6-1.2,2.2-1.7
						C186.2,82.3,186.3,82.2,186.4,82.1l-0.3-0.2c0,0-0.1,0.1-0.3,0.2c-0.6,0.5-1.9,1.4-3,2.2c-0.5,0.4-1,0.7-1.4,1.1
						c-0.1,0.1-0.3,0.2-0.4,0.3c0,0.1,0,0.2,0,0.3l0,0.2c0,0.3,0,0.5,0,0.7c0,0.2,0,0.4,0,0.7c0,0.2,0.2,0.4,0.3,0.6
						c0.3,0.3,0.6,0.3,0.7,0.3c0.2,0,0.4-0.1,0.6-0.2l0.4-0.3c0.3-0.2,0.5-0.5,0.8-0.7c0.5-0.4,1-0.9,1.5-1.3
						c1.1-0.9,2.1-1.8,3.2-2.6c1-0.9,2.1-1.8,3.1-2.8c0.5-0.4,1-0.8,1.6-0.9c0.3,0,0.6,0,0.9,0.2c0.3,0.1,0.7,0.3,1.1,0.3
						c0.5,0,0.9-0.4,1.1-0.8c0.2-0.4,0.2-0.8,0.3-1.1l0.5-2.2l0.5-2.2l0.3-1.3l0.2-1c0.1-0.3-0.1,0-0.2,0l-0.4,0.3l-0.7,0.6
						l-0.4,0.4l-0.8,0.7l-1.7,1.5c-1.1,1-2.2,1.9-3.4,2.9c-0.5,0.5-1.3,1.2-2.8,2.5c-0.5,0.4-1,0.8-1.4,1.2l-0.2,0.2L186.4,82.1
						L186.4,82.1z"/>
				</g>
			</g>
			<g opacity="0.15">
				<g>
					<g>
						<g>
							<path fill="#505A78" d="M196.6,66.5c0-0.3-0.3-0.4-0.4-0.4c-0.2-0.1-0.5-0.2-0.7-0.3c-0.2-0.1-0.5-0.2-0.8-0.3
								c-0.1,0-0.3-0.1-0.4-0.1c-0.1,0-0.4-0.1-0.5-0.1c-0.1,0-0.3,0.4-0.1,0.5c0.1,0,0.5,0.2,0.5,0.2c0.3,0.1,0.6,0.1,0.8,0.3
								c0.3,0.2,0.6,0.2,0.9,0.3C196,66.6,196.6,66.8,196.6,66.5z"/>
						</g>
					</g>
				</g>
				<g>
					<g>
						<g>
							<path fill="#505A78" d="M193.8,66.8c0.2,0.2,0.5,0,0.6,0c0.3-0.1,0.4-0.3,0.7-0.4c0.3-0.1,0.5-0.2,0.7-0.4
								c0.1-0.1,0.2-0.2,0.3-0.3c0.1-0.1,0.3-0.3,0.4-0.3c0.1-0.1-0.1-0.5-0.3-0.4c-0.1,0.1-0.4,0.3-0.5,0.3
								c-0.3,0.1-0.5,0.4-0.8,0.4c-0.3,0.1-0.6,0.3-0.8,0.5C194.1,66.2,193.5,66.6,193.8,66.8z"/>
						</g>
					</g>
				</g>
				<g>
					<g>
						<g>
							<path fill="#505A78" d="M195.3,67.6c0.3-0.1,0.2-0.5,0.2-0.6c0-0.3-0.1-0.5,0-0.8c0-0.3,0-0.6-0.1-0.8c0-0.1-0.1-0.3-0.1-0.4
								c0-0.1-0.1-0.4-0.1-0.5c0-0.1-0.5-0.1-0.5,0.1c0,0.1,0.1,0.5,0.1,0.6c0,0.3,0.1,0.6,0.1,0.9c-0.1,0.3,0.1,0.7,0.1,1
								C194.9,67.1,195,67.7,195.3,67.6z"/>
						</g>
					</g>
				</g>
			</g>
			<g opacity="0.15">
				<g>
					<g>
						<g>
							<path fill="#505A78" d="M171.3,66c0.3-0.2,0.1-0.4,0.1-0.4c-0.1-0.2-0.2-0.3-0.2-0.5c0-0.2-0.1-0.3-0.2-0.5
								c0-0.1-0.1-0.2-0.2-0.2c0,0-0.2-0.2-0.2-0.2c0-0.1-0.5,0.2-0.4,0.3c0,0.1,0.2,0.3,0.2,0.3c0.1,0.2,0.3,0.3,0.3,0.5
								c0,0.2,0.2,0.4,0.3,0.6C170.9,65.8,171.1,66.2,171.3,66z"/>
						</g>
					</g>
				</g>
				<g>
					<g>
						<g>
							<path fill="#505A78" d="M169.8,64.9c0,0.3,0.2,0.3,0.3,0.3c0.2,0.1,0.3,0.1,0.5,0.1c0.2,0.1,0.3,0.1,0.5,0.1
								c0.1,0,0.2,0,0.3,0c0.1,0,0.3,0,0.3,0c0.1,0,0.2-0.5,0.1-0.5c-0.1,0-0.3-0.1-0.4-0.1c-0.2-0.1-0.4,0-0.6-0.1
								c-0.2-0.1-0.4-0.1-0.6-0.2C170.2,64.6,169.8,64.6,169.8,64.9z"/>
						</g>
					</g>
				</g>
				<g>
					<g>
						<g>
							<path fill="#505A78" d="M170.2,66c0.3,0.1,0.4-0.1,0.4-0.1c0.1-0.1,0.2-0.3,0.3-0.4c0.1-0.1,0.3-0.3,0.4-0.4
								c0-0.1,0.1-0.2,0.1-0.3c0-0.1,0.1-0.2,0.1-0.3c0.1-0.1-0.3-0.4-0.4-0.3c0,0.1-0.2,0.3-0.2,0.3c-0.2,0.2-0.2,0.4-0.4,0.5
								c-0.2,0.1-0.3,0.4-0.4,0.5C170.1,65.5,169.9,65.8,170.2,66z"/>
						</g>
					</g>
				</g>
			</g>
			<g opacity="0.15">
				<g>
					<g>
						<g>
							<path fill="#505A78" d="M167.2,76.9c0.3-0.2,0.1-0.5,0.1-0.6c0-0.3-0.2-0.5-0.2-0.8c0-0.3-0.1-0.5-0.2-0.8
								c0-0.1-0.1-0.3-0.2-0.4c0-0.1-0.2-0.3-0.2-0.4c0-0.1-0.5,0-0.5,0.2c0,0.1,0.2,0.5,0.2,0.5c0.1,0.3,0.2,0.5,0.2,0.9
								c0,0.3,0.2,0.6,0.3,0.9C166.7,76.5,167,77.1,167.2,76.9z"/>
						</g>
					</g>
				</g>
				<g>
					<g>
						<g>
							<path fill="#505A78" d="M165.3,74.8c-0.1,0.3,0.3,0.4,0.4,0.5c0.2,0.1,0.5,0.2,0.7,0.4c0.2,0.2,0.5,0.3,0.7,0.4
								c0.1,0,0.3,0.1,0.4,0.1c0.1,0,0.4,0.1,0.5,0.1c0.1,0.1,0.4-0.4,0.2-0.5c-0.1,0-0.5-0.2-0.5-0.2c-0.3-0.2-0.6-0.2-0.8-0.4
								c-0.3-0.2-0.6-0.3-0.9-0.4C166,74.7,165.4,74.5,165.3,74.8z"/>
						</g>
					</g>
				</g>
				<g>
					<g>
						<g>
							<path fill="#505A78" d="M165.6,76.5c0.3,0.2,0.5-0.1,0.6-0.2c0.2-0.2,0.4-0.3,0.6-0.5c0.2-0.1,0.5-0.3,0.6-0.5
								c0.1-0.1,0.2-0.2,0.3-0.3c0.1-0.1,0.2-0.3,0.3-0.4c0.1-0.1-0.2-0.5-0.4-0.4c-0.1,0.1-0.4,0.4-0.4,0.4
								c-0.3,0.2-0.4,0.4-0.7,0.6c-0.3,0.2-0.5,0.4-0.8,0.6C165.8,75.9,165.3,76.3,165.6,76.5z"/>
						</g>
					</g>
				</g>
			</g>
			<g opacity="0.15">
				<g>
					<g>
						<g>
							<path fill="#505A78" d="M208.1,74.7c0.3-0.2,0.1-0.6,0-0.8c-0.1-0.4-0.2-0.6-0.3-1c-0.1-0.4-0.2-0.7-0.3-1
								c-0.1-0.2-0.2-0.4-0.2-0.5c-0.1-0.1-0.2-0.5-0.3-0.6c-0.1-0.2-0.6-0.1-0.5,0.2c0,0.1,0.2,0.7,0.2,0.7
								c0.1,0.4,0.3,0.7,0.3,1.1c0,0.4,0.3,0.8,0.4,1.2C207.5,74.1,207.8,74.9,208.1,74.7z"/>
						</g>
					</g>
				</g>
				<g>
					<g>
						<g>
							<path fill="#505A78" d="M205.5,71.8c0,0.3,0.4,0.5,0.5,0.5c0.3,0.2,0.6,0.3,0.9,0.5c0.3,0.2,0.6,0.3,1,0.5
								c0.2,0.1,0.4,0.1,0.6,0.2c0.1,0,0.5,0.1,0.6,0.2c0.2,0.1,0.4-0.4,0.2-0.5c-0.1-0.1-0.6-0.3-0.7-0.3c-0.4-0.2-0.7-0.2-1.1-0.5
								c-0.4-0.3-0.8-0.3-1.2-0.5C206.4,71.8,205.6,71.5,205.5,71.8z"/>
						</g>
					</g>
				</g>
				<g>
					<g>
						<g>
							<path fill="#505A78" d="M205.8,74.1c0.3,0.2,0.6-0.2,0.7-0.3c0.3-0.2,0.5-0.5,0.8-0.7c0.3-0.2,0.6-0.5,0.9-0.7
								c0.1-0.1,0.3-0.3,0.4-0.4c0.1-0.1,0.3-0.4,0.4-0.5c0.1-0.1-0.2-0.5-0.4-0.4c-0.1,0.1-0.5,0.5-0.6,0.5
								c-0.4,0.3-0.5,0.6-0.9,0.8c-0.4,0.2-0.7,0.6-1,0.9C206.2,73.3,205.6,74,205.8,74.1z"/>
						</g>
					</g>
				</g>
			</g>
		</g>
		<g>
			<g>
				<g>
					<path fill="#505A78" d="M171.9,59.6c0.2,0.1,0.5-0.1,0.7-0.3c0.2-0.3,0.2-0.6,0.3-0.7c0.1-0.4,0.1-0.7,0.1-1
						c0-0.4-0.1-0.8-0.2-1.1c-0.2-0.4-0.4-0.7-0.8-1c-0.4-0.3-0.9-0.4-1.3-0.3c-0.4,0-0.9,0.2-1.2,0.5c-0.2,0.1-0.8,0.7-1,1
						c-0.2,0.4,0.4,0.6,0.6,0.3c0.1-0.1,0.2-0.3,0.5-0.5c0.2-0.2,0.4-0.3,0.5-0.3c0.7-0.2,1.3-0.4,1.7,0.2c0.2,0.3,0.3,0.6,0.4,0.9
						c0.1,0.3,0,0.7,0,1.1c0,0-0.1,0.4-0.1,0.7C171.9,59.2,171.7,59.5,171.9,59.6z"/>
				</g>
			</g>
		</g>
	</g>
</g>
</svg>
